<svg width="39" height="70" viewBox="0 0 39 70" fill="none" xmlns="http://www.w3.org/2000/svg">
<g clip-path="url(#clip0_767_561)">
<path d="M28.6501 30.9842H26.3585V25.5L26.8368 25.1579C28.4607 23.99 29.7842 22.4523 30.698 20.6715C31.6119 18.8907 32.0899 16.9179 32.0927 14.9158C32.0927 11.5657 30.7637 8.3528 28.3981 5.98392C26.0324 3.61504 22.824 2.28421 19.4785 2.28421C16.133 2.28421 12.9245 3.61504 10.5588 5.98392C8.19321 8.3528 6.86422 11.5657 6.86422 14.9158C6.86702 16.9179 7.34504 18.8907 8.25887 20.6715C9.17271 22.4523 10.4962 23.99 12.1202 25.1579L12.5984 25.5V30.9842H10.3068V26.6579C8.52569 25.2634 7.0844 23.4818 6.09191 21.4475C5.09941 19.4133 4.5817 17.1798 4.57788 14.9158C4.58206 10.9593 6.15416 7.16629 8.94895 4.36964C11.7437 1.57299 15.5327 0.00139238 19.4837 0C23.4329 0.00417964 27.2192 1.577 30.0117 4.37335C32.8042 7.16969 34.3749 10.9612 34.379 14.9158C34.3752 17.1798 33.8575 19.4133 32.865 21.4475C31.8725 23.4818 30.4312 25.2634 28.6501 26.6579V30.9842Z" fill="#1A1A1A"/>
<path d="M27.5044 35.5737H11.4633C11.0119 35.5737 10.5649 35.4846 10.1478 35.3116C9.73079 35.1387 9.35186 34.8851 9.03267 34.5655C8.71348 34.2459 8.46028 33.8664 8.28754 33.4488C8.11479 33.0312 8.02588 32.5836 8.02588 32.1315C8.02588 31.2186 8.38803 30.3431 9.03267 29.6976C9.6773 29.0521 10.5516 28.6895 11.4633 28.6895H27.5044C28.416 28.6895 29.2903 29.0521 29.935 29.6976C30.5796 30.3431 30.9418 31.2186 30.9418 32.1315C30.9418 32.5836 30.8529 33.0312 30.6801 33.4488C30.5074 33.8664 30.2542 34.2459 29.935 34.5655C29.6158 34.8851 29.2369 35.1387 28.8198 35.3116C28.4028 35.4846 27.9558 35.5737 27.5044 35.5737V35.5737ZM11.4633 30.9842C11.1594 30.9842 10.8679 31.1051 10.6531 31.3202C10.4382 31.5354 10.3175 31.8272 10.3175 32.1315C10.3175 32.4358 10.4382 32.7277 10.6531 32.9429C10.8679 33.158 11.1594 33.2789 11.4633 33.2789H27.5044C27.8083 33.2789 28.0997 33.158 28.3146 32.9429C28.5295 32.7277 28.6502 32.4358 28.6502 32.1315C28.6502 31.8272 28.5295 31.5354 28.3146 31.3202C28.0997 31.1051 27.8083 30.9842 27.5044 30.9842H11.4633Z" fill="#1A1A1A"/>
<path d="M26.3585 40.1635H12.609C11.6974 40.1635 10.823 39.8008 10.1784 39.1553C9.53378 38.5098 9.17163 37.6343 9.17163 36.7214C9.17163 36.2694 9.26054 35.8218 9.43328 35.4042C9.60603 34.9865 9.85922 34.6071 10.1784 34.2875C10.4976 33.9678 10.8765 33.7143 11.2936 33.5413C11.7106 33.3683 12.1576 33.2793 12.609 33.2793H26.3585C26.8099 33.2793 27.2569 33.3683 27.674 33.5413C28.091 33.7143 28.47 33.9678 28.7891 34.2875C29.1083 34.6071 29.3615 34.9865 29.5343 35.4042C29.707 35.8218 29.7959 36.2694 29.7959 36.7214C29.7959 37.6343 29.4338 38.5098 28.7891 39.1553C28.1445 39.8008 27.2702 40.1635 26.3585 40.1635V40.1635ZM12.609 35.574C12.4585 35.574 12.3096 35.6037 12.1705 35.6614C12.0315 35.719 11.9052 35.8035 11.7988 35.9101C11.6924 36.0166 11.608 36.1431 11.5504 36.2823C11.4929 36.4215 11.4632 36.5707 11.4632 36.7214C11.4632 37.0257 11.5839 37.3175 11.7988 37.5327C12.0137 37.7479 12.3051 37.8688 12.609 37.8688H26.3585C26.6624 37.8688 26.9539 37.7479 27.1687 37.5327C27.3836 37.3175 27.5043 37.0257 27.5043 36.7214C27.5043 36.5707 27.4747 36.4215 27.4171 36.2823C27.3595 36.1431 27.2751 36.0166 27.1687 35.9101C27.0623 35.8035 26.936 35.719 26.797 35.6614C26.658 35.6037 26.509 35.574 26.3585 35.574H12.609Z" fill="#1A1A1A"/>
<path d="M13.7548 17.2104C12.8431 17.2104 11.9688 16.8477 11.3242 16.2022C10.6795 15.5567 10.3174 14.6812 10.3174 13.7683C10.3188 12.8558 10.6814 11.9811 11.3257 11.3359C11.97 10.6907 12.8435 10.3276 13.7548 10.3262C14.666 10.3276 15.5395 10.6907 16.1838 11.3359C16.8282 11.9811 17.1908 12.8558 17.1922 13.7683H14.9006C14.8964 13.4662 14.7741 13.1779 14.5598 12.9653C14.3455 12.7527 14.0564 12.6328 13.7548 12.6314C13.4513 12.6328 13.1607 12.7542 12.9461 12.969C12.7315 13.1839 12.6104 13.4749 12.609 13.7788C12.609 14.0831 12.7297 14.3749 12.9446 14.5901C13.1594 14.8053 13.4509 14.9262 13.7548 14.9262V17.2104Z" fill="#1A1A1A"/>
<path d="M25.2128 17.2096V14.9149C25.5167 14.9149 25.8081 14.794 26.023 14.5788C26.2379 14.3637 26.3586 14.0718 26.3586 13.7675C26.3544 13.4655 26.2321 13.1771 26.0178 12.9645C25.8035 12.7519 25.5144 12.632 25.2128 12.6307C24.9093 12.6321 24.6187 12.7534 24.4041 12.9683C24.1895 13.1831 24.0684 13.4742 24.067 13.778H21.7754C21.7768 12.8656 22.1394 11.9909 22.7837 11.3456C23.428 10.7004 24.3015 10.3373 25.2128 10.3359C26.124 10.3373 26.9975 10.7004 27.6418 11.3456C28.2862 11.9909 28.6488 12.8656 28.6502 13.778C28.6474 14.6891 28.284 15.5619 27.6397 16.2052C26.9953 16.8484 26.1226 17.2096 25.2128 17.2096V17.2096Z" fill="#1A1A1A"/>
<path d="M25.2075 14.916H13.7495V17.2108H25.2075V14.916Z" fill="#1A1A1A"/>
<path d="M17.1869 13.7676H14.8953V29.8307H17.1869V13.7676Z" fill="#1A1A1A"/>
<path d="M24.067 13.7676H21.7754V29.8307H24.067V13.7676Z" fill="#1A1A1A"/>
<path d="M26.3585 44.7377H12.609C11.6974 44.7377 10.823 44.3751 10.1784 43.7295C9.53378 43.084 9.17163 42.2085 9.17163 41.2956C9.17163 40.3827 9.53378 39.5072 10.1784 38.8617C10.823 38.2162 11.6974 37.8535 12.609 37.8535H26.3585C27.2702 37.8535 28.1445 38.2162 28.7891 38.8617C29.4338 39.5072 29.7959 40.3827 29.7959 41.2956C29.7959 42.2085 29.4338 43.084 28.7891 43.7295C28.1445 44.3751 27.2702 44.7377 26.3585 44.7377V44.7377ZM12.609 40.1482C12.3051 40.1482 12.0137 40.2691 11.7988 40.4843C11.5839 40.6995 11.4632 40.9913 11.4632 41.2956C11.4632 41.4463 11.4929 41.5955 11.5504 41.7347C11.608 41.8739 11.6924 42.0004 11.7988 42.1069C11.9052 42.2135 12.0315 42.298 12.1705 42.3556C12.3096 42.4133 12.4585 42.443 12.609 42.443H26.3585C26.509 42.443 26.658 42.4133 26.797 42.3556C26.936 42.298 27.0623 42.2135 27.1687 42.1069C27.2751 42.0004 27.3595 41.8739 27.4171 41.7347C27.4747 41.5955 27.5043 41.4463 27.5043 41.2956C27.5043 40.9913 27.3836 40.6995 27.1687 40.4843C26.9539 40.2691 26.6624 40.1482 26.3585 40.1482H12.609Z" fill="#1A1A1A"/>
<path d="M0.919678 48.79L2.3598 37.2637L8.45144 32.3848L9.88105 34.1742L4.51474 38.4742L3.66328 45.3111L11.0584 42.5321L11.8625 44.6795L0.919678 48.79Z" fill="#1A1A1A"/>
<path d="M38.0425 48.79L27.0996 44.6795L27.9038 42.5321L35.2989 45.3111L34.4474 38.4742L29.0811 34.1742L30.5107 32.3848L36.6023 37.2637L38.0425 48.79Z" fill="#1A1A1A"/>
<path d="M26.9841 44.9476L26.3586 43.6055H12.6091L11.9836 44.9476C9.94745 49.3177 9.5865 54.2849 10.9694 58.9041C12.3523 63.5234 15.3826 67.4725 19.4838 70.0002V70.0002C23.585 67.4725 26.6153 63.5234 27.9982 58.9041C29.3812 54.2849 29.0202 49.3177 26.9841 44.9476V44.9476Z" fill="#C22229"/>
<path d="M19.4838 55.357L18.8058 54.857C15.1231 52.1883 12.5254 48.2788 11.4895 43.8465L11.1899 42.457H27.7777L27.4781 43.8465C26.4422 48.2788 23.8445 52.1883 20.1618 54.857L19.4838 55.357ZM14.1017 44.736C15.1194 47.7805 16.9872 50.4691 19.4838 52.4833C21.9804 50.4691 23.8482 47.7805 24.8659 44.736H14.1017Z" fill="#1A1A1A"/>
<path d="M34.379 52.7891H32.0874V65.4101H34.379V52.7891Z" fill="#1A1A1A"/>
<path d="M34.379 67.7051H32.0874V69.9998H34.379V67.7051Z" fill="#1A1A1A"/>
<path d="M38.9622 51.6367H36.6707V61.963H38.9622V51.6367Z" fill="#1A1A1A"/>
<path d="M38.9622 64.2637H36.6707V67.7058H38.9622V64.2637Z" fill="#1A1A1A"/>
<path d="M6.87484 52.7891H4.58325V67.7048H6.87484V52.7891Z" fill="#1A1A1A"/>
<path d="M2.29159 51.6367H0V63.1104H2.29159V51.6367Z" fill="#1A1A1A"/>
<path d="M2.29159 65.4102H0V67.7049H2.29159V65.4102Z" fill="#1A1A1A"/>
</g>
<defs>
<clipPath id="clip0_767_561">
<rect width="38.9623" height="70" fill="white"/>
</clipPath>
</defs>
</svg>
