<svg width="50" height="48" viewBox="0 0 50 48" fill="none" xmlns="http://www.w3.org/2000/svg">
<g clip-path="url(#clip0_754_50)">
<path d="M43.1995 47.4767H0.47168V7.12109H17.8788V8.7057H2.05629V45.8921H43.1995V47.4767Z" fill="#1A1A1A" stroke="#191919" stroke-width="2" stroke-miterlimit="10"/>
<path d="M43.1995 7.12109H27.3723V8.7057H43.1995V7.12109Z" fill="#1A1A1A" stroke="#191919" stroke-width="2" stroke-miterlimit="10"/>
<path d="M45.1753 47.4764H43.1993V45.8918H45.1753C45.9095 45.8918 46.6137 45.6001 47.1328 45.081C47.652 44.5618 47.9437 43.8577 47.9437 43.1234V5.14477C47.9437 4.41056 47.652 3.70643 47.1328 3.18727C46.6137 2.6681 45.9095 2.37643 45.1753 2.37643H43.9916V40.3551H42.407V0.787109H45.1753C46.3294 0.788358 47.4359 1.24737 48.252 2.06344C49.068 2.87951 49.527 3.98597 49.5283 5.14007V43.1187C49.5283 44.2737 49.0698 45.3813 48.2536 46.1984C47.4374 47.0155 46.3302 47.4752 45.1753 47.4764Z" fill="#1A1A1A" stroke="#191919" stroke-width="2" stroke-miterlimit="10"/>
<path d="M45.1755 47.4774H43.1995V45.8928H45.1755C45.9097 45.8928 46.6139 45.6011 47.133 45.0819C47.6522 44.5628 47.9439 43.8586 47.9439 43.1244C47.9439 42.3902 47.6522 41.6861 47.133 41.1669C46.6139 40.6478 45.9097 40.3561 45.1755 40.3561H43.1995V38.7715H45.1755C46.3296 38.7727 47.4361 39.2317 48.2521 40.0478C49.0682 40.8639 49.5272 41.9703 49.5285 43.1244C49.5272 44.2785 49.0682 45.385 48.2521 46.2011C47.4361 47.0171 46.3296 47.4761 45.1755 47.4774Z" fill="#1A1A1A" stroke="#191919" stroke-width="2" stroke-miterlimit="10"/>
<path d="M15.5065 17.4063H13.9219V11.8696C13.9231 11.0307 14.2569 10.2265 14.8501 9.63331C15.4433 9.04013 16.2475 8.70633 17.0864 8.70508H17.8787V10.285H17.0864C16.6669 10.2862 16.2651 10.4537 15.9689 10.7508C15.6728 11.0478 15.5065 11.4501 15.5065 11.8696V14.6662C15.9864 14.3877 16.5315 14.2412 17.0864 14.2418H17.8787V15.8264H17.0864C16.6674 15.8264 16.2655 15.9928 15.9692 16.2891C15.6729 16.5854 15.5065 16.9872 15.5065 17.4063Z" fill="#1A1A1A"/>
<path d="M31.329 17.4063H29.7491C29.7479 16.9868 29.5804 16.585 29.2834 16.2888C28.9863 15.9927 28.584 15.8264 28.1645 15.8264H27.3628V14.2418H28.1551C28.7114 14.2417 29.2579 14.3881 29.7397 14.6662V11.8696C29.7385 11.4497 29.5711 11.0474 29.2742 10.7505C28.9773 10.4536 28.575 10.2862 28.1551 10.285H27.3628V8.70508H28.1551C28.994 8.70633 29.7982 9.04013 30.3914 9.63331C30.9845 10.2265 31.3184 11.0307 31.3196 11.8696L31.329 17.4063Z" fill="#1A1A1A"/>
<path d="M24.8208 1.30637L22.6278 0L20.4301 1.30637C19.4009 1.99046 18.5569 2.91863 17.9734 4.00813C17.39 5.09763 17.0853 6.31459 17.0864 7.55047V15.8272H28.1645V7.55047C28.1657 6.31459 27.8609 5.09763 27.2775 4.00813C26.6941 2.91863 25.8501 1.99046 24.8208 1.30637ZM22.6278 10.2669C22.0024 10.2669 21.4027 10.0185 20.9605 9.57628C20.5182 9.13406 20.2698 8.53429 20.2698 7.90889C20.2698 7.2835 20.5182 6.68371 20.9605 6.2415C21.4027 5.79928 22.0024 5.55085 22.6278 5.55085C23.2532 5.55085 23.853 5.79928 24.2952 6.2415C24.7375 6.68371 24.9859 7.2835 24.9859 7.90889C24.9884 8.21856 24.9298 8.52568 24.8136 8.81272C24.6974 9.09976 24.5258 9.36112 24.3086 9.58183C24.0914 9.80255 23.8328 9.97832 23.5477 10.0991C23.2625 10.2199 22.9564 10.2833 22.6467 10.2858L22.6278 10.2669Z" fill="#C22229"/>
<path d="M23.4201 15.8281H21.8354V22.1571H23.4201V15.8281Z" fill="#1A1A1A"/>
<path d="M23.4201 23.7363H21.8354V25.3209H23.4201V23.7363Z" fill="#1A1A1A"/>
<path d="M20.2555 15.8281H18.6709V19.7849H20.2555V15.8281Z" fill="#1A1A1A"/>
<path d="M20.2555 21.3633H18.6709V22.9479H20.2555V21.3633Z" fill="#1A1A1A"/>
<path d="M26.5846 15.8281H25V19.7849H26.5846V15.8281Z" fill="#1A1A1A"/>
<path d="M26.5846 21.3633H25V22.9479H26.5846V21.3633Z" fill="#1A1A1A"/>
<path d="M22.6468 11.079C21.807 11.079 21.0017 10.7457 20.4074 10.1524C19.8132 9.5591 19.4788 8.7542 19.4775 7.91449C19.4788 7.07478 19.8132 6.2699 20.4074 5.67658C21.0017 5.08326 21.807 4.75 22.6468 4.75C23.4856 4.75125 24.2898 5.08505 24.883 5.67824C25.4762 6.27142 25.81 7.0756 25.8112 7.91449C25.81 8.75339 25.4762 9.55758 24.883 10.1508C24.2898 10.744 23.4856 11.0778 22.6468 11.079ZM22.6468 6.33461C22.2273 6.33461 21.825 6.5009 21.5279 6.79706C21.2309 7.09321 21.0634 7.49505 21.0622 7.91449C21.0634 8.33437 21.2307 8.73671 21.5276 9.03362C21.8245 9.33052 22.2269 9.49786 22.6468 9.49911C23.0662 9.49786 23.468 9.33036 23.7642 9.03333C24.0603 8.73629 24.2267 8.33394 24.2266 7.91449C24.2266 7.49548 24.0602 7.09363 23.7639 6.79734C23.4676 6.50106 23.0658 6.33461 22.6468 6.33461Z" fill="#1A1A1A"/>
<path d="M6.80067 43.5208C6.17528 43.5208 5.57551 43.2724 5.13329 42.8301C4.69107 42.3879 4.44263 41.7881 4.44263 41.1627C4.44263 40.5373 4.69107 39.9376 5.13329 39.4953C5.57551 39.0531 6.17528 38.8047 6.80067 38.8047C7.42607 38.8047 8.02585 39.0531 8.46807 39.4953C8.91029 39.9376 9.15872 40.5373 9.15872 41.1627C9.15872 41.7881 8.91029 42.3879 8.46807 42.8301C8.02585 43.2724 7.42607 43.5208 6.80067 43.5208ZM6.80067 40.3563C6.59054 40.3563 6.38902 40.4398 6.24044 40.5884C6.09185 40.7369 6.00837 40.9385 6.00837 41.1486C6.00837 41.3587 6.09185 41.5603 6.24044 41.7088C6.38902 41.8574 6.59054 41.9409 6.80067 41.9409C7.01081 41.9409 7.21234 41.8574 7.36093 41.7088C7.50951 41.5603 7.59297 41.3587 7.59297 41.1486C7.59297 41.0445 7.57249 40.9415 7.53267 40.8454C7.49285 40.7493 7.4345 40.6619 7.36093 40.5884C7.28735 40.5148 7.2 40.4564 7.10388 40.4166C7.00775 40.3768 6.90472 40.3563 6.80067 40.3563Z" fill="#1A1A1A"/>
<path d="M18.671 32.4427C18.0456 32.4427 17.4459 32.1942 17.0036 31.752C16.5614 31.3098 16.313 30.71 16.313 30.0846C16.313 29.4592 16.5614 28.8594 17.0036 28.4172C17.4459 27.975 18.0456 27.7266 18.671 27.7266C19.2964 27.7266 19.8962 27.975 20.3384 28.4172C20.7806 28.8594 21.0291 29.4592 21.0291 30.0846C21.0291 30.71 20.7806 31.3098 20.3384 31.752C19.8962 32.1942 19.2964 32.4427 18.671 32.4427ZM18.671 29.2782C18.4609 29.2782 18.2594 29.3616 18.1108 29.5102C17.9622 29.6588 17.8787 29.8603 17.8787 30.0705C17.8787 30.2806 17.9622 30.4821 18.1108 30.6307C18.2594 30.7793 18.4609 30.8628 18.671 30.8628C18.8803 30.8615 19.0807 30.7775 19.2282 30.629C19.3758 30.4806 19.4586 30.2798 19.4586 30.0705C19.4586 29.8611 19.3758 29.6603 19.2282 29.5119C19.0807 29.3634 18.8803 29.2794 18.671 29.2782Z" fill="#1A1A1A"/>
<path d="M25.7924 40.3548C25.167 40.3548 24.5672 40.1063 24.125 39.6641C23.6828 39.2219 23.4343 38.6221 23.4343 37.9967C23.4343 37.3713 23.6828 36.7716 24.125 36.3293C24.5672 35.8871 25.167 35.6387 25.7924 35.6387C26.4178 35.6387 27.0175 35.8871 27.4598 36.3293C27.902 36.7716 28.1504 37.3713 28.1504 37.9967C28.1504 38.6221 27.902 39.2219 27.4598 39.6641C27.0175 40.1063 26.4178 40.3548 25.7924 40.3548ZM25.7924 37.1903C25.5822 37.1903 25.3807 37.2737 25.2321 37.4223C25.0835 37.5709 25.0001 37.7724 25.0001 37.9826C25.0013 38.1919 25.0853 38.3922 25.2338 38.5398C25.3822 38.6873 25.5831 38.7702 25.7924 38.7702C26.0013 38.7702 26.2016 38.6872 26.3493 38.5395C26.497 38.3918 26.58 38.1915 26.58 37.9826C26.58 37.7733 26.4971 37.5724 26.3496 37.424C26.202 37.2755 26.0017 37.1915 25.7924 37.1903Z" fill="#1A1A1A"/>
<path d="M37.6581 27.6985C37.0327 27.6985 36.4329 27.4501 35.9907 27.0078C35.5485 26.5656 35.3 25.9659 35.3 25.3405C35.3 24.7151 35.5485 24.1153 35.9907 23.6731C36.4329 23.2309 37.0327 22.9824 37.6581 22.9824C38.2835 22.9824 38.8833 23.2309 39.3255 23.6731C39.7677 24.1153 40.0161 24.7151 40.0161 25.3405C40.0161 25.9659 39.7677 26.5656 39.3255 27.0078C38.8833 27.4501 38.2835 27.6985 37.6581 27.6985ZM37.6581 24.5293C37.4488 24.5305 37.2485 24.6146 37.1009 24.763C36.9533 24.9115 36.8705 25.1123 36.8705 25.3216C36.8705 25.5309 36.9533 25.7317 37.1009 25.8802C37.2485 26.0286 37.4488 26.1127 37.6581 26.1139C37.8682 26.1139 38.0698 26.0304 38.2183 25.8818C38.3669 25.7333 38.4504 25.5317 38.4504 25.3216C38.4504 25.1115 38.3669 24.9099 38.2183 24.7614C38.0698 24.6128 37.8682 24.5293 37.6581 24.5293Z" fill="#1A1A1A"/>
<path d="M17.3274 30.2797L7.04712 39.7793L8.12254 40.9431L18.4028 31.4435L17.3274 30.2797Z" fill="#1A1A1A"/>
<path d="M20.0789 30.3373L18.8865 31.3809L24.4273 37.7123L25.6197 36.6687L20.0789 30.3373Z" fill="#1A1A1A"/>
<path d="M36.3101 25.576L26.021 36.6484L27.1818 37.7271L37.4709 26.6547L36.3101 25.576Z" fill="#1A1A1A"/>
</g>
<defs>
<clipPath id="clip0_754_50">
<rect width="50" height="47.9485" fill="white"/>
</clipPath>
</defs>
</svg>
