<svg width="758" height="758" viewBox="0 0 758 758" fill="none" xmlns="http://www.w3.org/2000/svg">
<g clip-path="url(#clip0_225_8)">
<path d="M5.32984 378.671C5.32984 192.671 141.33 38.5005 319.26 10.0405L318.41 4.77051C137.92 33.6405 -0.000241128 190.041 -0.000241128 378.671C-0.0827957 437.671 13.6795 495.867 40.1799 548.58L44.9399 546.19C18.8131 494.218 5.246 436.84 5.32984 378.671Z" fill="white"/>
<path d="M378.67 3.80027e-06C358.489 -0.0028416 338.339 1.59216 318.41 4.77002L319.26 10.04C338.908 6.90279 358.773 5.32777 378.67 5.32996C584.85 5.32996 752 172.48 752 378.67C752 584.86 584.85 752 378.67 752C232.72 752 106.34 668.25 44.9401 546.19L40.1801 548.58C102.45 672.38 230.63 757.33 378.67 757.33C587.8 757.33 757.33 587.8 757.33 378.67C757.33 169.54 587.8 3.80027e-06 378.67 3.80027e-06Z" fill="#B8292D"/>
<g filter="url(#filter0_d_225_8)">
<circle cx="606" cy="85" r="66" fill="white"/>
</g>
<g filter="url(#filter1_d_225_8)">
<circle cx="85" cy="163" r="66" fill="white"/>
</g>
<path d="M60.1283 152.475V171.95H57.0283V158.15L50.3283 169.1L43.6283 158.15V171.95H40.5283V152.475H43.2783L50.3283 164.1L57.4283 152.475H60.1283ZM73.7857 171.95V170.6C73.2024 171.2 72.5441 171.608 71.8107 171.825C71.0941 172.058 70.3774 172.175 69.6607 172.175C68.6441 172.175 67.7024 172 66.8357 171.65C65.9691 171.3 65.2107 170.817 64.5607 170.2C63.9274 169.583 63.4274 168.85 63.0607 168C62.6941 167.15 62.5107 166.217 62.5107 165.2C62.5107 164.183 62.6941 163.25 63.0607 162.4C63.4274 161.533 63.9274 160.792 64.5607 160.175C65.2107 159.542 65.9691 159.05 66.8357 158.7C67.7024 158.333 68.6441 158.15 69.6607 158.15C70.3607 158.15 71.0774 158.292 71.8107 158.575C72.5441 158.842 73.2024 159.275 73.7857 159.875V158.375H76.9107V171.95H73.7857ZM69.6607 160.8C69.0441 160.8 68.4857 160.917 67.9857 161.15C67.4857 161.383 67.0607 161.7 66.7107 162.1C66.3607 162.5 66.0857 162.967 65.8857 163.5C65.7024 164.033 65.6107 164.6 65.6107 165.2C65.6107 165.8 65.7024 166.367 65.8857 166.9C66.0857 167.417 66.3607 167.875 66.7107 168.275C67.0607 168.658 67.4857 168.967 67.9857 169.2C68.4857 169.417 69.0441 169.525 69.6607 169.525C70.2774 169.525 70.8357 169.417 71.3357 169.2C71.8357 168.967 72.2607 168.658 72.6107 168.275C72.9774 167.875 73.2524 167.417 73.4357 166.9C73.6357 166.367 73.7357 165.8 73.7357 165.2C73.7357 164.6 73.6357 164.033 73.4357 163.5C73.2524 162.967 72.9774 162.5 72.6107 162.1C72.2607 161.7 71.8357 161.383 71.3357 161.15C70.8357 160.917 70.2774 160.8 69.6607 160.8ZM88.6332 160.975C87.7665 160.975 87.0165 161.05 86.3832 161.2C85.7665 161.35 85.1499 161.642 84.5332 162.075C84.0999 162.358 83.7582 162.75 83.5082 163.25C83.2749 163.733 83.1582 164.192 83.1582 164.625V171.95H80.0332V158.375H83.1582V160.075C83.9749 159.325 84.8332 158.825 85.7332 158.575C86.6499 158.308 87.6165 158.175 88.6332 158.175V160.975ZM94.1416 171.95H91.0166V152.475H94.1416V163.9L98.9416 158.375H102.392L97.4416 163.95L103.217 171.95H99.7666L95.5416 166.1L94.1416 167.7V171.95ZM116.065 169.825C115.832 170.125 115.523 170.417 115.14 170.7C114.773 171 114.332 171.258 113.815 171.475C113.315 171.708 112.74 171.892 112.09 172.025C111.457 172.158 110.765 172.225 110.015 172.225C108.965 172.225 108.007 172.05 107.14 171.7C106.29 171.35 105.548 170.858 104.915 170.225C104.298 169.608 103.815 168.875 103.465 168.025C103.132 167.175 102.965 166.242 102.965 165.225C102.965 164.208 103.123 163.275 103.44 162.425C103.773 161.558 104.24 160.808 104.84 160.175C105.44 159.542 106.165 159.05 107.015 158.7C107.865 158.333 108.815 158.15 109.865 158.15C110.915 158.15 111.865 158.333 112.715 158.7C113.565 159.05 114.29 159.542 114.89 160.175C115.49 160.808 115.948 161.558 116.265 162.425C116.598 163.275 116.765 164.208 116.765 165.225V166.425H106.215C106.415 167.375 106.832 168.142 107.465 168.725C108.115 169.308 108.965 169.6 110.015 169.6C110.965 169.6 111.815 169.442 112.565 169.125C113.315 168.808 113.89 168.408 114.29 167.925L116.065 169.825ZM109.865 160.8C108.865 160.8 108.057 161.083 107.44 161.65C106.84 162.2 106.44 162.925 106.24 163.825H113.465C113.265 162.925 112.865 162.2 112.265 161.65C111.665 161.083 110.865 160.8 109.865 160.8ZM123.942 167.325C123.942 168.025 124.108 168.567 124.442 168.95C124.792 169.333 125.3 169.525 125.967 169.525C126.45 169.525 126.892 169.392 127.292 169.125C127.692 168.842 128.008 168.525 128.242 168.175L130.092 170C129.608 170.7 129.017 171.242 128.317 171.625C127.617 172.008 126.867 172.2 126.067 172.2C124.35 172.2 123.042 171.758 122.142 170.875C121.258 170.008 120.817 168.8 120.817 167.25V161.075H118.517V158.375H120.817V152.975H123.942V158.375H128.067V161.075H123.942V167.325Z" fill="#1A1A1A"/>
<g filter="url(#filter2_d_225_8)">
<circle cx="625" cy="634" r="85" fill="white"/>
</g>
<path d="M590.202 67.375C588.902 67.375 587.91 67.1 587.227 66.55C586.544 66 586.202 65.0667 586.202 63.75V55.625H589.202V59H598.702V55.625H601.677V67.375H595.527V72.05H604.677V74.7H583.352V72.05H592.502V67.375H590.202ZM598.702 61.65H589.202V63.325C589.202 63.8583 589.294 64.225 589.477 64.425C589.677 64.625 590.044 64.725 590.577 64.725H598.702V61.65ZM606.675 58.625V56.175H611.775V53.7H614.875V56.175H619.975V58.625H617.725C617.992 58.9083 618.217 59.225 618.4 59.575C618.6 59.925 618.75 60.3083 618.85 60.725H622.825V54.05H625.825V67.525H622.825V63.4H618.75C618.55 64.0167 618.25 64.55 617.85 65C617.467 65.45 617.025 65.825 616.525 66.125C616.025 66.425 615.492 66.65 614.925 66.8C614.375 66.9333 613.833 67 613.3 67C612.617 67 611.933 66.8917 611.25 66.675C610.583 66.4583 609.983 66.1417 609.45 65.725C608.917 65.2917 608.483 64.7583 608.15 64.125C607.833 63.4917 607.675 62.75 607.675 61.9C607.675 61.2 607.783 60.5833 608 60.05C608.217 59.5167 608.517 59.0417 608.9 58.625H606.675ZM625.825 77.05H614.6C613.6 77.05 612.792 76.8333 612.175 76.4C611.575 75.9667 611.275 75.325 611.275 74.475V68.925H625.825V77.05ZM616.05 61.9C616.05 61 615.792 60.3167 615.275 59.85C614.758 59.3667 614.1 59.125 613.3 59.125C612.5 59.125 611.842 59.375 611.325 59.875C610.825 60.375 610.575 61.05 610.575 61.9C610.575 62.7667 610.842 63.4417 611.375 63.925C611.908 64.4083 612.55 64.65 613.3 64.65C614.1 64.65 614.758 64.4083 615.275 63.925C615.792 63.425 616.05 62.75 616.05 61.9ZM622.825 74.375V71.6H614.275V73.675C614.275 74.1417 614.517 74.375 615 74.375H622.825ZM590.103 106.7H577.903V107.25C577.92 107.433 577.986 107.583 578.103 107.7C578.236 107.833 578.411 107.9 578.628 107.9H590.378V110.25H578.153C577.153 110.25 576.361 110.042 575.778 109.625C575.211 109.208 574.928 108.575 574.928 107.725V104.375H587.103V103.275H574.928V100.925H590.103V106.7ZM574.128 95.975V93.525H577.053C577.02 93.2917 577.003 93.0667 577.003 92.85C577.003 92.6167 577.003 92.3833 577.003 92.15L576.928 90.775H579.928L580.003 92.15C580.003 92.3833 580.003 92.6167 580.003 92.85C580.003 93.0667 580.02 93.2917 580.053 93.525H584.928L585.003 92.15C585.003 91.7167 585.028 91.2583 585.078 90.775H588.053C588.02 91.0083 588.003 91.2417 588.003 91.475C588.003 91.6917 588.003 91.9167 588.003 92.15L587.928 93.525H590.878V95.975H574.128ZM593.178 97.125V99.7H571.853V97.125H593.178ZM574.453 90.175V87.725H590.528V90.175H574.453ZM607.526 94.25H611.076V87.05H614.076V110.55H611.076V96.9H607.526V94.25ZM609.701 102.85C608.701 103.367 607.526 103.758 606.176 104.025C604.826 104.275 603.343 104.4 601.726 104.4C600.926 104.4 600.176 104.308 599.476 104.125C598.793 103.942 598.201 103.667 597.701 103.3C597.201 102.917 596.801 102.433 596.501 101.85C596.218 101.267 596.076 100.575 596.076 99.775V94.8H603.226V91.575H596.076V88.925H606.251V97.4H599.101V99.125C599.101 100.125 599.334 100.817 599.801 101.2C600.268 101.583 601.001 101.775 602.001 101.775C602.751 101.775 603.443 101.75 604.076 101.7C604.726 101.633 605.334 101.55 605.901 101.45C606.468 101.35 607.001 101.225 607.501 101.075C608.018 100.908 608.526 100.725 609.026 100.525L609.701 102.85ZM639.174 105.05V107.7H617.849V105.05H639.174ZM628.524 95.425C628.307 95.9083 628.049 96.3417 627.749 96.725C627.466 97.1083 627.157 97.4917 626.824 97.875C626.007 98.825 625.066 99.6 623.999 100.2C622.949 100.783 621.849 101.242 620.699 101.575L619.049 99.5C620.249 99.1167 621.324 98.6333 622.274 98.05C623.224 97.45 624.099 96.7167 624.899 95.85C625.532 95.1 626.024 94.3333 626.374 93.55C626.741 92.7667 626.924 91.925 626.924 91.025V88.65H630.049V91.025C630.049 91.975 630.241 92.85 630.624 93.65C631.007 94.4333 631.499 95.1583 632.099 95.825C632.949 96.775 633.857 97.5417 634.824 98.125C635.791 98.6917 636.824 99.1417 637.924 99.475L636.274 101.575C635.024 101.208 633.882 100.725 632.849 100.125C631.832 99.5083 630.899 98.7 630.049 97.7C629.766 97.35 629.499 96.9917 629.249 96.625C628.999 96.2417 628.757 95.8417 628.524 95.425Z" fill="#1A1A1A"/>
<path d="M614.248 623.95H602.123V604.475H605.248V621.25H614.248V623.95ZM627.153 623.95V622.6C626.57 623.2 625.911 623.608 625.178 623.825C624.461 624.058 623.745 624.175 623.028 624.175C622.011 624.175 621.07 624 620.203 623.65C619.336 623.3 618.578 622.817 617.928 622.2C617.295 621.583 616.795 620.85 616.428 620C616.061 619.15 615.878 618.217 615.878 617.2C615.878 616.183 616.061 615.25 616.428 614.4C616.795 613.533 617.295 612.792 617.928 612.175C618.578 611.542 619.336 611.05 620.203 610.7C621.07 610.333 622.011 610.15 623.028 610.15C623.728 610.15 624.445 610.292 625.178 610.575C625.911 610.842 626.57 611.275 627.153 611.875V610.375H630.278V623.95H627.153ZM623.028 612.8C622.411 612.8 621.853 612.917 621.353 613.15C620.853 613.383 620.428 613.7 620.078 614.1C619.728 614.5 619.453 614.967 619.253 615.5C619.07 616.033 618.978 616.6 618.978 617.2C618.978 617.8 619.07 618.367 619.253 618.9C619.453 619.417 619.728 619.875 620.078 620.275C620.428 620.658 620.853 620.967 621.353 621.2C621.853 621.417 622.411 621.525 623.028 621.525C623.645 621.525 624.203 621.417 624.703 621.2C625.203 620.967 625.628 620.658 625.978 620.275C626.345 619.875 626.62 619.417 626.803 618.9C627.003 618.367 627.103 617.8 627.103 617.2C627.103 616.6 627.003 616.033 626.803 615.5C626.62 614.967 626.345 614.5 625.978 614.1C625.628 613.7 625.203 613.383 624.703 613.15C624.203 612.917 623.645 612.8 623.028 612.8ZM633.275 623.95V604.475H636.4V611.425C636.967 611.025 637.584 610.717 638.25 610.5C638.934 610.267 639.65 610.15 640.4 610.15C641.417 610.15 642.359 610.333 643.225 610.7C644.092 611.05 644.842 611.542 645.475 612.175C646.109 612.792 646.6 613.533 646.95 614.4C647.317 615.25 647.5 616.183 647.5 617.2C647.5 618.217 647.317 619.15 646.95 620C646.6 620.85 646.109 621.583 645.475 622.2C644.842 622.817 644.092 623.3 643.225 623.65C642.359 624 641.417 624.175 640.4 624.175C639.65 624.175 638.917 624.042 638.2 623.775C637.484 623.508 636.884 623.108 636.4 622.575V623.95H633.275ZM640.4 612.8C639.25 612.8 638.317 613.15 637.6 613.85C636.9 614.533 636.5 615.458 636.4 616.625V617.775C636.5 618.942 636.9 619.858 637.6 620.525C638.317 621.192 639.25 621.525 640.4 621.525C641.65 621.525 642.625 621.142 643.325 620.375C644.042 619.608 644.4 618.55 644.4 617.2C644.4 615.85 644.042 614.783 643.325 614C642.625 613.2 641.65 612.8 640.4 612.8ZM589.34 659.05C588.79 658.817 588.265 658.558 587.765 658.275C587.282 657.992 586.823 657.683 586.39 657.35C585.49 656.683 584.74 655.883 584.14 654.95C583.49 654.05 583.007 653.017 582.69 651.85C582.34 650.7 582.165 649.383 582.165 647.9C582.165 645.133 582.782 642.817 584.015 640.95C585.232 639.083 587.007 637.675 589.34 636.725V639.75C588.59 640.183 587.982 640.625 587.515 641.075C587.015 641.558 586.573 642.142 586.19 642.825C585.807 643.508 585.532 644.258 585.365 645.075C585.165 645.925 585.065 646.867 585.065 647.9C585.065 650 585.44 651.675 586.19 652.925C586.907 654.225 587.957 655.25 589.34 656V659.05ZM603.953 642.45C603.953 643.35 603.803 644.15 603.503 644.85C603.17 645.6 602.745 646.225 602.228 646.725C601.678 647.258 601.053 647.658 600.353 647.925C599.62 648.225 598.845 648.375 598.028 648.375C597.161 648.375 596.378 648.225 595.678 647.925C594.945 647.658 594.32 647.258 593.803 646.725C593.303 646.275 592.886 645.65 592.553 644.85C592.253 644.15 592.103 643.35 592.103 642.45C592.103 641.6 592.253 640.8 592.553 640.05C592.886 639.267 593.303 638.642 593.803 638.175C594.386 637.625 595.011 637.217 595.678 636.95C596.428 636.667 597.211 636.525 598.028 636.525C598.811 636.525 599.586 636.667 600.353 636.95C601.003 637.217 601.628 637.625 602.228 638.175C602.745 638.708 603.17 639.333 603.503 640.05C603.803 640.8 603.953 641.6 603.953 642.45ZM600.953 642.45C600.953 641.433 600.678 640.625 600.128 640.025C599.545 639.458 598.853 639.175 598.053 639.175C597.203 639.175 596.495 639.458 595.928 640.025C595.361 640.592 595.078 641.4 595.078 642.45C595.078 643.517 595.361 644.325 595.928 644.875C596.478 645.442 597.186 645.725 598.053 645.725C598.453 645.725 598.828 645.65 599.178 645.5C599.528 645.383 599.836 645.175 600.103 644.875C600.353 644.592 600.561 644.25 600.728 643.85C600.878 643.45 600.953 642.983 600.953 642.45ZM610.503 658.925H599.028C598.028 658.925 597.22 658.708 596.603 658.275C596.003 657.842 595.703 657.2 595.703 656.35V650.9H598.703V655.55C598.703 656.017 598.945 656.25 599.428 656.25H610.503V658.925ZM604.078 646.225V643.775H607.328V640.975H604.078V638.525H607.328V636.05H610.328V651.275H607.328V646.225H604.078ZM632.351 636.975C632.351 639.175 632.259 641.142 632.076 642.875C631.909 644.608 631.668 646.075 631.351 647.275L628.576 646.8C628.893 645.6 629.101 644.383 629.201 643.15C629.301 641.9 629.351 640.725 629.351 639.625H616.626V636.975H632.351ZM622.976 659.55V651.375H613.851V648.725H635.176V651.375H626.026V659.55H622.976ZM649.024 648.7V654.05H658.174V656.7H636.849V654.05H645.999V648.7H649.024ZM647.524 644.025C647.307 644.508 647.049 644.942 646.749 645.325C646.466 645.708 646.157 646.092 645.824 646.475C645.007 647.425 644.066 648.2 642.999 648.8C641.949 649.383 640.849 649.842 639.699 650.175L638.049 648.1C639.249 647.717 640.324 647.233 641.274 646.65C642.224 646.05 643.099 645.317 643.899 644.45C644.532 643.7 645.024 642.933 645.374 642.15C645.741 641.367 645.924 640.525 645.924 639.625V637.4H649.049V639.625C649.049 640.575 649.241 641.45 649.624 642.25C650.007 643.033 650.499 643.758 651.099 644.425C651.949 645.375 652.857 646.142 653.824 646.725C654.791 647.292 655.824 647.742 656.924 648.075L655.274 650.175C654.024 649.808 652.882 649.325 651.849 648.725C650.832 648.108 649.899 647.3 649.049 646.3C648.766 645.95 648.499 645.592 648.249 645.225C647.999 644.842 647.757 644.442 647.524 644.025ZM659.697 656C661.064 655.233 662.122 654.208 662.872 652.925C663.605 651.642 663.972 649.967 663.972 647.9C663.972 647.367 663.947 646.875 663.897 646.425C663.847 645.958 663.78 645.508 663.697 645.075C663.497 644.258 663.222 643.508 662.872 642.825C662.689 642.508 662.48 642.208 662.247 641.925C662.03 641.625 661.789 641.342 661.522 641.075C661.239 640.825 660.947 640.592 660.647 640.375C660.347 640.158 660.03 639.95 659.697 639.75V636.725C661.997 637.675 663.78 639.083 665.047 640.95C666.28 642.833 666.897 645.15 666.897 647.9C666.897 649.333 666.73 650.65 666.397 651.85C666.064 652.983 665.572 654.017 664.922 654.95C664.239 655.883 663.48 656.683 662.647 657.35C662.197 657.683 661.722 657.992 661.222 658.275C660.739 658.558 660.23 658.817 659.697 659.05V656Z" fill="#1A1A1A"/>
<g clip-path="url(#clip1_225_8)">
<path d="M378.495 151C366.371 150.999 354.267 151.96 342.295 153.874C233.853 171.211 151 265.182 151 378.511C150.947 413.956 159.212 448.919 175.13 480.589C194.062 518.298 223.108 549.999 259.022 572.148C294.935 594.297 336.301 606.022 378.495 606.011C504.138 606.011 605.989 504.158 605.989 378.511C605.989 252.865 504.138 151 378.495 151ZM378.495 602.811C336.895 602.82 296.112 591.259 260.705 569.421C225.297 547.584 196.659 516.33 177.993 479.152C162.301 447.927 154.152 413.457 154.2 378.511C154.2 266.777 235.897 174.153 342.834 157.041C354.638 155.152 366.574 154.206 378.528 154.211C502.398 154.211 602.823 254.628 602.823 378.511C602.823 502.395 502.364 602.845 378.495 602.845V602.811Z" fill="#C4C4C4"/>
<g filter="url(#filter3_d_225_8)">
<circle cx="236" cy="521" r="66" fill="white"/>
</g>
<path d="M209.217 518.175C209.217 516.792 209.425 515.492 209.842 514.275C210.275 513.058 210.9 512 211.717 511.1C212.55 510.2 213.575 509.492 214.792 508.975C216.008 508.442 217.417 508.175 219.017 508.175C220.617 508.175 221.992 508.408 223.142 508.875C224.292 509.342 225.35 510.083 226.317 511.1L224.467 513.15C223.717 512.3 222.908 511.7 222.042 511.35C221.175 511 220.167 510.825 219.017 510.825C217.967 510.825 217.025 511 216.192 511.35C215.375 511.683 214.683 512.175 214.117 512.825C213.55 513.458 213.117 514.233 212.817 515.15C212.533 516.05 212.392 517.058 212.392 518.175C212.392 519.308 212.542 520.325 212.842 521.225C213.158 522.125 213.6 522.9 214.167 523.55C214.75 524.183 215.458 524.675 216.292 525.025C217.125 525.358 218.067 525.525 219.117 525.525C220.267 525.525 221.292 525.35 222.192 525C223.092 524.65 223.917 524.05 224.667 523.2L226.517 525.25C225.55 526.267 224.475 527.008 223.292 527.475C222.108 527.942 220.717 528.175 219.117 528.175C217.517 528.175 216.1 527.908 214.867 527.375C213.65 526.858 212.617 526.15 211.767 525.25C210.933 524.35 210.3 523.292 209.867 522.075C209.433 520.858 209.217 519.558 209.217 518.175ZM240.628 511.175H232.153V516.6H239.903V519.225H232.153V525.25H240.928V527.95H229.028V508.475H240.628V511.175ZM252.758 528.2C251.208 528.2 249.816 527.942 248.583 527.425C247.366 526.908 246.341 526.2 245.508 525.3C244.674 524.383 244.033 523.317 243.583 522.1C243.149 520.867 242.933 519.55 242.933 518.15C242.933 516.717 243.158 515.392 243.608 514.175C244.074 512.942 244.733 511.875 245.583 510.975C246.449 510.075 247.491 509.375 248.708 508.875C249.941 508.358 251.324 508.1 252.858 508.1C254.391 508.1 255.766 508.367 256.983 508.9C258.216 509.417 259.258 510.133 260.108 511.05C260.974 511.95 261.633 513.017 262.083 514.25C262.549 515.467 262.783 516.767 262.783 518.15C262.783 519.583 262.541 520.917 262.058 522.15C261.591 523.367 260.916 524.425 260.033 525.325C259.166 526.225 258.116 526.925 256.883 527.425C255.649 527.942 254.274 528.2 252.758 528.2ZM252.858 510.7C251.808 510.7 250.858 510.875 250.008 511.225C249.174 511.575 248.458 512.075 247.858 512.725C247.274 513.375 246.824 514.158 246.508 515.075C246.191 515.992 246.033 517.017 246.033 518.15C246.033 519.383 246.199 520.467 246.533 521.4C246.883 522.317 247.366 523.092 247.983 523.725C248.599 524.342 249.316 524.808 250.133 525.125C250.966 525.442 251.874 525.6 252.858 525.6C253.908 525.6 254.849 525.425 255.683 525.075C256.533 524.708 257.249 524.2 257.833 523.55C258.433 522.9 258.891 522.117 259.208 521.2C259.524 520.283 259.683 519.267 259.683 518.15C259.683 516.95 259.508 515.892 259.158 514.975C258.824 514.042 258.358 513.258 257.758 512.625C257.158 511.992 256.441 511.517 255.608 511.2C254.774 510.867 253.858 510.7 252.858 510.7Z" fill="#1A1A1A"/>
<g filter="url(#filter4_d_225_8)">
<circle cx="379" cy="379" r="100" fill="#B8292D"/>
</g>
<path d="M376.8 357.49H351.95V372.54H374.56V379.89H351.95V404.46H343.2V349.93H376.8V357.49ZM423.355 367.78C423.355 370.02 422.935 372.213 422.095 374.36C421.255 376.507 420.065 378.42 418.525 380.1C416.985 381.733 415.142 383.063 412.995 384.09C410.895 385.07 408.585 385.56 406.065 385.56H392.555V404.46H383.805V349.93H406.065C408.585 349.93 410.895 350.443 412.995 351.47C415.142 352.45 416.985 353.78 418.525 355.46C420.065 357.14 421.255 359.053 422.095 361.2C422.935 363.347 423.355 365.54 423.355 367.78ZM405.645 378.14C407.092 378.14 408.375 377.883 409.495 377.37C410.662 376.81 411.642 376.063 412.435 375.13C413.229 374.197 413.812 373.1 414.185 371.84C414.605 370.58 414.815 369.227 414.815 367.78C414.815 366.333 414.605 364.98 414.185 363.72C413.812 362.46 413.229 361.363 412.435 360.43C411.642 359.45 410.662 358.703 409.495 358.19C408.375 357.63 407.092 357.35 405.645 357.35H392.555V378.14H405.645Z" fill="white"/>
</g>
</g>
<defs>
<filter id="filter0_d_225_8" x="537" y="18" width="148" height="148" filterUnits="userSpaceOnUse" color-interpolation-filters="sRGB">
<feFlood flood-opacity="0" result="BackgroundImageFix"/>
<feColorMatrix in="SourceAlpha" type="matrix" values="0 0 0 0 0 0 0 0 0 0 0 0 0 0 0 0 0 0 127 0" result="hardAlpha"/>
<feOffset dx="5" dy="7"/>
<feGaussianBlur stdDeviation="4"/>
<feComposite in2="hardAlpha" operator="out"/>
<feColorMatrix type="matrix" values="0 0 0 0 0 0 0 0 0 0 0 0 0 0 0 0 0 0 0.25 0"/>
<feBlend mode="normal" in2="BackgroundImageFix" result="effect1_dropShadow_225_8"/>
<feBlend mode="normal" in="SourceGraphic" in2="effect1_dropShadow_225_8" result="shape"/>
</filter>
<filter id="filter1_d_225_8" x="16" y="96" width="148" height="148" filterUnits="userSpaceOnUse" color-interpolation-filters="sRGB">
<feFlood flood-opacity="0" result="BackgroundImageFix"/>
<feColorMatrix in="SourceAlpha" type="matrix" values="0 0 0 0 0 0 0 0 0 0 0 0 0 0 0 0 0 0 127 0" result="hardAlpha"/>
<feOffset dx="5" dy="7"/>
<feGaussianBlur stdDeviation="4"/>
<feComposite in2="hardAlpha" operator="out"/>
<feColorMatrix type="matrix" values="0 0 0 0 0 0 0 0 0 0 0 0 0 0 0 0 0 0 0.25 0"/>
<feBlend mode="normal" in2="BackgroundImageFix" result="effect1_dropShadow_225_8"/>
<feBlend mode="normal" in="SourceGraphic" in2="effect1_dropShadow_225_8" result="shape"/>
</filter>
<filter id="filter2_d_225_8" x="537" y="548" width="186" height="186" filterUnits="userSpaceOnUse" color-interpolation-filters="sRGB">
<feFlood flood-opacity="0" result="BackgroundImageFix"/>
<feColorMatrix in="SourceAlpha" type="matrix" values="0 0 0 0 0 0 0 0 0 0 0 0 0 0 0 0 0 0 127 0" result="hardAlpha"/>
<feOffset dx="5" dy="7"/>
<feGaussianBlur stdDeviation="4"/>
<feComposite in2="hardAlpha" operator="out"/>
<feColorMatrix type="matrix" values="0 0 0 0 0 0 0 0 0 0 0 0 0 0 0 0 0 0 0.25 0"/>
<feBlend mode="normal" in2="BackgroundImageFix" result="effect1_dropShadow_225_8"/>
<feBlend mode="normal" in="SourceGraphic" in2="effect1_dropShadow_225_8" result="shape"/>
</filter>
<filter id="filter3_d_225_8" x="167" y="454" width="148" height="148" filterUnits="userSpaceOnUse" color-interpolation-filters="sRGB">
<feFlood flood-opacity="0" result="BackgroundImageFix"/>
<feColorMatrix in="SourceAlpha" type="matrix" values="0 0 0 0 0 0 0 0 0 0 0 0 0 0 0 0 0 0 127 0" result="hardAlpha"/>
<feOffset dx="5" dy="7"/>
<feGaussianBlur stdDeviation="4"/>
<feComposite in2="hardAlpha" operator="out"/>
<feColorMatrix type="matrix" values="0 0 0 0 0 0 0 0 0 0 0 0 0 0 0 0 0 0 0.25 0"/>
<feBlend mode="normal" in2="BackgroundImageFix" result="effect1_dropShadow_225_8"/>
<feBlend mode="normal" in="SourceGraphic" in2="effect1_dropShadow_225_8" result="shape"/>
</filter>
<filter id="filter4_d_225_8" x="272" y="276" width="214" height="214" filterUnits="userSpaceOnUse" color-interpolation-filters="sRGB">
<feFlood flood-opacity="0" result="BackgroundImageFix"/>
<feColorMatrix in="SourceAlpha" type="matrix" values="0 0 0 0 0 0 0 0 0 0 0 0 0 0 0 0 0 0 127 0" result="hardAlpha"/>
<feOffset dy="4"/>
<feGaussianBlur stdDeviation="3.5"/>
<feComposite in2="hardAlpha" operator="out"/>
<feColorMatrix type="matrix" values="0 0 0 0 0 0 0 0 0 0 0 0 0 0 0 0 0 0 0.25 0"/>
<feBlend mode="normal" in2="BackgroundImageFix" result="effect1_dropShadow_225_8"/>
<feBlend mode="normal" in="SourceGraphic" in2="effect1_dropShadow_225_8" result="shape"/>
</filter>
<clipPath id="clip0_225_8">
<rect width="757.33" height="757.33" fill="white"/>
</clipPath>
<clipPath id="clip1_225_8">
<rect width="455" height="455" fill="white" transform="translate(151 151)"/>
</clipPath>
</defs>
</svg>
