<svg width="50" height="69" viewBox="0 0 50 69" fill="none" xmlns="http://www.w3.org/2000/svg">
<g clip-path="url(#clip0_754_102)">
<path d="M27.205 26.5681L26.0767 28.8242L28.0939 29.8331L29.2222 27.5769L27.205 26.5681Z" fill="#1A1A1A"/>
<path d="M16.4708 34.882L14.3815 34.0273L15.254 31.8905C14.5149 31.4574 13.9375 30.7946 13.6099 30.0031C13.4088 29.5238 13.3052 29.0093 13.3052 28.4895C13.3052 27.9698 13.4088 27.4552 13.6099 26.976C13.9677 26.0901 14.6324 25.3627 15.4826 24.9267C16.3327 24.4908 17.3113 24.3754 18.2395 24.6018L18.6847 23.5156L20.7739 24.3703L19.486 27.5102L17.919 26.8691C17.5002 26.6984 17.0308 26.7007 16.6136 26.8753C16.1964 27.05 15.8655 27.3828 15.6932 27.801C15.5244 28.2191 15.5275 28.687 15.7021 29.1028C15.8766 29.5186 16.2084 29.8486 16.6251 30.0209L18.1979 30.6619L16.4708 34.882Z" fill="#1A1A1A"/>
<path d="M44.6047 16.5666L36.4317 11.753C36.1448 11.5594 35.9027 11.3067 35.7215 11.0119C35.5403 10.7171 35.4242 10.387 35.3811 10.0436L34.7163 0.582541C34.6688 -0.0406784 34.2533 -0.206879 33.7845 0.202665L26.6619 6.48828C26.3896 6.70076 26.0752 6.85297 25.7395 6.93483C25.4039 7.01668 25.0548 7.02633 24.7151 6.96312L15.5271 4.69578C14.9335 4.54146 14.6309 4.88572 14.8801 5.46146L18.661 14.1568C18.7802 14.4816 18.8286 14.828 18.8031 15.173C18.7775 15.518 18.6784 15.8535 18.5126 16.1571L13.4853 24.2055C13.1529 24.7338 13.3903 25.1136 14.0136 25.0543L23.4568 24.1521C23.8022 24.1363 24.1469 24.196 24.4667 24.3273C24.7866 24.4585 25.0739 24.658 25.3087 24.9118L31.4103 32.1768C31.808 32.6516 32.2472 32.5448 32.3837 31.9394L34.4374 22.6801C34.5322 22.3469 34.6973 22.0378 34.9215 21.7737C35.1457 21.5096 35.4238 21.2965 35.7372 21.1488L44.5276 17.5875C45.1092 17.356 45.1389 16.9109 44.6047 16.5666Z" fill="#C22229"/>
<path d="M27.0951 20.8691L25.0059 20.0144L28.4425 11.6217L26.3413 10.767L27.196 8.67773L31.3864 10.3931L27.0951 20.8691Z" fill="#1A1A1A"/>
<path d="M23.3648 18.1058L22.5107 20.1934L28.7623 22.7509L29.6164 20.6634L23.3648 18.1058Z" fill="#1A1A1A"/>
<path d="M14.8741 41.2522C14.3609 41.2525 13.8526 41.1516 13.3784 40.9554L8.13739 38.8127C7.16625 38.4141 6.39283 37.6467 5.98671 36.6787C5.58059 35.7106 5.57493 34.6211 5.97099 33.6489C6.36957 32.6777 7.13703 31.9043 8.10504 31.4982C9.07306 31.0921 10.1626 31.0864 11.1348 31.4825L16.3758 33.6251C17.3473 34.025 18.1209 34.7935 18.5269 35.7625C18.933 36.7315 18.9385 37.8219 18.5422 38.7949C18.2433 39.522 17.735 40.1438 17.0818 40.5813C16.4287 41.0189 15.6603 41.2524 14.8741 41.2522ZM9.63907 33.4411C9.29988 33.4402 8.96819 33.541 8.68678 33.7303C8.40537 33.9197 8.18717 34.189 8.06027 34.5036C7.88977 34.9216 7.89214 35.3901 8.06686 35.8063C8.24158 36.2225 8.57435 36.5524 8.9921 36.7234L14.2331 38.8661C14.4399 38.9527 14.6618 38.9972 14.886 38.9972C15.1102 38.9972 15.3321 38.9527 15.5389 38.8661C15.953 38.689 16.2811 38.3566 16.4529 37.9402C16.5394 37.7334 16.584 37.5115 16.584 37.2873C16.584 37.0631 16.5394 36.8412 16.4529 36.6344C16.3678 36.427 16.242 36.2388 16.083 36.0808C15.924 35.9228 15.7349 35.7982 15.527 35.7144L10.2861 33.5717C10.0815 33.4846 9.86137 33.4402 9.63907 33.4411Z" fill="#1A1A1A"/>
<path d="M13.7939 46.9203C13.2814 46.9192 12.7737 46.8205 12.2982 46.6295L7.05721 44.4808C6.57583 44.2841 6.13792 43.9945 5.76851 43.6285C5.39909 43.2625 5.10539 42.8273 4.90421 42.3478C4.70302 41.8682 4.5983 41.3537 4.59599 40.8337C4.59368 40.3137 4.69385 39.7983 4.89076 39.317C5.29061 38.3469 6.05819 37.5745 7.02576 37.1686C7.99334 36.7626 9.08226 36.7562 10.0546 37.1506L15.2956 39.2992C15.777 39.4959 16.2148 39.7856 16.5842 40.1516C16.9537 40.5176 17.2474 40.9528 17.4485 41.4323C17.6497 41.9119 17.7545 42.4263 17.7568 42.9463C17.7591 43.4664 17.6589 43.9817 17.462 44.463C17.1637 45.1906 16.6556 45.8129 16.0023 46.2505C15.349 46.6881 14.5802 46.9213 13.7939 46.9203ZM13.1529 44.5461C13.3597 44.6327 13.5816 44.6772 13.8058 44.6772C14.03 44.6772 14.2519 44.6327 14.4587 44.5461C14.8739 44.3706 15.2025 44.0376 15.3727 43.6202C15.4579 43.4133 15.5014 43.1917 15.5007 42.9679C15.5 42.7442 15.455 42.5228 15.3684 42.3165C15.2818 42.1102 15.1553 41.9231 14.9961 41.7659C14.8369 41.6086 14.6482 41.4844 14.4409 41.4004L9.19989 39.2517C8.78192 39.0812 8.31335 39.0836 7.89713 39.2584C7.48091 39.4331 7.15108 39.7659 6.98005 40.1836C6.80933 40.6024 6.81155 41.0718 6.9862 41.489C7.16086 41.9062 7.49374 42.2371 7.91191 42.4094L13.1529 44.5461Z" fill="#1A1A1A"/>
<path d="M12.6839 52.594C12.1687 52.5954 11.6582 52.4945 11.1823 52.2972L5.94131 50.1545C4.9712 49.7547 4.19877 48.9871 3.79283 48.0195C3.3869 47.0519 3.38044 45.963 3.77486 44.9907C4.17345 44.0196 4.9409 43.2461 5.90892 42.84C6.87694 42.4339 7.96651 42.4282 8.93869 42.8243L14.1856 44.967C15.1557 45.3668 15.9281 46.1344 16.3341 47.102C16.74 48.0695 16.7465 49.1584 16.352 50.1308C16.1551 50.6128 15.8649 51.0512 15.4983 51.4209C15.1316 51.7906 14.6956 52.0844 14.2153 52.2853C13.7305 52.4893 13.2099 52.5943 12.6839 52.594ZM7.44295 44.783C7.21682 44.782 6.9928 44.8264 6.78413 44.9135C6.57727 44.9995 6.38949 45.1256 6.2316 45.2845C6.0737 45.4435 5.94881 45.6321 5.86415 45.8395C5.69343 46.2583 5.69564 46.7277 5.8703 47.1448C6.04496 47.562 6.37784 47.893 6.79601 48.0652L12.037 50.2079C12.2443 50.2933 12.4664 50.3369 12.6905 50.3362C12.9147 50.3355 13.1365 50.2906 13.3433 50.204C13.5501 50.1175 13.7377 49.9909 13.8955 49.8317C14.0533 49.6724 14.1781 49.4836 14.2627 49.2761C14.4316 48.8579 14.4284 48.39 14.2539 47.9743C14.0794 47.5585 13.7476 47.2285 13.3309 47.0562L8.08399 44.9135C7.88151 44.8266 7.66332 44.7821 7.44295 44.783Z" fill="#1A1A1A"/>
<path d="M11.5799 58.2619C11.0674 58.2608 10.5598 58.1621 10.0842 57.9711L4.84319 55.8225C4.36165 55.6275 3.92373 55.3387 3.55485 54.9729C3.18598 54.6071 2.89353 54.1715 2.69457 53.6916C2.49329 53.2114 2.38965 52.6959 2.38965 52.1751C2.38965 51.6544 2.49329 51.1389 2.69457 50.6586C2.88866 50.1766 3.17716 49.7382 3.54308 49.3692C3.909 49.0002 4.34499 48.7081 4.8254 48.51C5.30566 48.3087 5.82117 48.2051 6.3419 48.2051C6.86263 48.2051 7.37814 48.3087 7.8584 48.51L13.0994 50.6586C14.0705 51.0572 14.8439 51.8247 15.2501 52.7927C15.6562 53.7607 15.6618 54.8503 15.2658 55.8225C14.9623 56.5486 14.4499 57.1681 13.7937 57.6024C13.1374 58.0368 12.3669 58.2663 11.5799 58.2619ZM10.9389 55.8877C11.1462 55.9731 11.3682 56.0167 11.5924 56.016C11.8166 56.0153 12.0384 55.9704 12.2452 55.8838C12.452 55.7973 12.6397 55.6707 12.7974 55.5115C12.9552 55.3523 13.08 55.1634 13.1647 54.9559C13.25 54.7486 13.2936 54.5265 13.2929 54.3023C13.2922 54.0782 13.2473 53.8563 13.1608 53.6496C13.0742 53.4428 12.9477 53.2551 12.7884 53.0973C12.6292 52.9396 12.4404 52.8148 12.2328 52.7301L6.99181 50.5874C6.57357 50.4153 6.10429 50.4153 5.68605 50.5874C5.47919 50.6734 5.29138 50.7995 5.13348 50.9584C4.97558 51.1173 4.85069 51.3059 4.76603 51.5133C4.59388 51.9316 4.59388 52.4009 4.76603 52.8191C4.85124 53.0257 4.97713 53.2131 5.13619 53.3702C5.29526 53.5272 5.48424 53.6506 5.69195 53.7332L10.9389 55.8877Z" fill="#1A1A1A"/>
<path d="M13.3902 68.7974C12.8789 68.7977 12.3726 68.6969 11.9004 68.5006L2.46308 64.6426C1.49193 64.244 0.718516 63.4766 0.312393 62.5085C-0.0937291 61.5405 -0.0993843 60.451 0.296671 59.4788C0.657766 58.5968 1.32444 57.8745 2.17464 57.4439C3.02484 57.0134 4.00167 56.9035 4.92629 57.1343L5.79882 54.9975L7.88806 55.8522L6.17272 60.0427L4.60579 59.3957C4.18768 59.2268 3.71976 59.23 3.30398 59.4046C2.8882 59.5791 2.55825 59.9108 2.38595 60.3276C2.30061 60.5349 2.257 60.7569 2.25767 60.9811C2.25834 61.2053 2.30326 61.4271 2.38983 61.6339C2.4764 61.8407 2.60293 62.0283 2.76217 62.1861C2.92141 62.3439 3.11021 62.4687 3.31778 62.5533L12.7551 66.4114C12.962 66.4966 13.1836 66.5401 13.4074 66.5393C13.6311 66.5386 13.8525 66.4936 14.0588 66.407C14.2651 66.3204 14.4522 66.1939 14.6095 66.0347C14.7667 65.8755 14.8909 65.6869 14.975 65.4795C15.0616 65.2738 15.1063 65.0528 15.1063 64.8296C15.1063 64.6063 15.0616 64.3854 14.975 64.1796C14.889 63.9728 14.7629 63.785 14.604 63.6271C14.445 63.4692 14.2564 63.3443 14.049 63.2597L12.4821 62.6186L21.225 41.2511L20.0379 32.6744C19.9568 32.0658 19.9996 31.4471 20.1639 30.8555C20.3281 30.2639 20.6103 29.7116 20.9935 29.2319C21.3768 28.7506 21.8548 28.3532 22.398 28.0643C22.9411 27.7753 23.5378 27.601 24.1511 27.5521C25.3344 27.4775 26.5012 27.8603 27.4103 28.6214C28.3194 29.3825 28.9014 30.4637 29.036 31.6416L30.6801 43.7499L49.9999 51.65L43.5659 67.367L23.4626 59.1405C22.4102 59.8391 21.203 60.2698 19.946 60.395C18.6891 60.5202 17.4206 60.3361 16.2511 59.8587L16.0671 59.7874L15.4023 61.4197C16.1415 61.8528 16.7188 62.5156 17.0464 63.3071C17.2462 63.7867 17.3491 64.3011 17.3491 64.8207C17.3491 65.3402 17.2462 65.8546 17.0464 66.3342C16.7479 67.0596 16.2415 67.6805 15.5909 68.1188C14.9403 68.5571 14.1746 68.7932 13.3902 68.7974ZM23.1243 56.5645L42.3313 64.423L47.0797 52.8845L28.6798 45.3465L26.8577 31.9503C26.8005 31.3459 26.5139 30.7863 26.0569 30.3867C25.5998 29.9871 25.0071 29.7777 24.4004 29.8017C24.0918 29.8261 23.7914 29.9135 23.5179 30.0585C23.2443 30.2034 23.0033 30.4028 22.8097 30.6445C22.6156 30.884 22.4731 31.1611 22.3914 31.4584C22.3097 31.7556 22.2904 32.0666 22.3349 32.3717L23.5813 41.5479L23.1896 42.5094L16.9693 57.6982L17.1532 57.7753C18.0575 58.1427 19.0432 58.2627 20.0092 58.1229C20.9752 57.9831 21.8865 57.5886 22.6495 56.98L23.1243 56.5645Z" fill="#1A1A1A"/>
</g>
<defs>
<clipPath id="clip0_754_102">
<rect width="50" height="68.7975" fill="white"/>
</clipPath>
</defs>
</svg>
