<svg width="50" height="47" viewBox="0 0 50 47" fill="none" xmlns="http://www.w3.org/2000/svg">
<g clip-path="url(#clip0_767_702)">
<path d="M7.88641 29.7361C7.70004 29.7342 7.52031 29.6668 7.37867 29.5457L4.61761 27.2448C3.37941 26.2045 2.36749 24.9215 1.6443 23.475C0.921115 22.0286 0.502014 20.4492 0.412802 18.8345C0.32359 17.2198 0.56618 15.6039 1.12562 14.0865C1.68506 12.5692 2.54946 11.1825 3.66552 10.0122C5.71102 7.89111 8.48184 6.6204 11.4238 6.45418C14.3658 6.28796 17.2621 7.23847 19.5335 9.11562L32.4897 19.89C32.8652 20.2048 33.1721 20.5932 33.3917 21.0312C33.6112 21.4692 33.7387 21.9475 33.7662 22.4367C33.7937 22.9259 33.7207 23.4156 33.5516 23.8754C33.3826 24.3353 33.1211 24.7556 32.7833 25.1105C32.1722 25.7481 31.3445 26.1336 30.4633 26.1909C29.582 26.2481 28.7113 25.9731 28.0229 25.42L22.1676 20.6993C22.0809 20.6357 22.008 20.5551 21.9534 20.4625C21.8988 20.3699 21.8636 20.2672 21.8499 20.1605C21.8362 20.0539 21.8443 19.9456 21.8737 19.8422C21.9032 19.7388 21.9533 19.6424 22.0212 19.559C22.089 19.4756 22.1731 19.4068 22.2683 19.3569C22.3635 19.3069 22.4679 19.2769 22.575 19.2685C22.6822 19.2601 22.79 19.2736 22.8918 19.3082C22.9936 19.3427 23.0873 19.3976 23.1673 19.4695L29.0146 24.1823C29.3124 24.4141 29.6706 24.5555 30.0465 24.5894C30.4224 24.6233 30.8001 24.5485 31.1346 24.3737C31.4691 24.1989 31.7464 23.9316 31.9332 23.6036C32.12 23.2757 32.2085 22.9009 32.1882 22.5241C32.175 22.2514 32.1055 21.9844 31.984 21.74C31.8624 21.4956 31.6915 21.279 31.4821 21.1039L18.5497 10.3692C16.4697 8.65741 13.7948 7.84201 11.1136 8.1024C8.4324 8.36278 5.96447 9.67761 4.25268 11.7576C2.54089 13.8377 1.72546 16.5125 1.98585 19.1937C2.24623 21.8749 3.5611 24.3429 5.64113 26.0547L8.3942 28.3635C8.47454 28.4301 8.54097 28.5119 8.58964 28.6042C8.63832 28.6965 8.66829 28.7975 8.67787 28.9014C8.68745 29.0053 8.67645 29.1101 8.64548 29.2098C8.6145 29.3094 8.56415 29.402 8.49734 29.4822C8.41978 29.566 8.32506 29.632 8.21962 29.6758C8.11419 29.7196 8.00051 29.7402 7.88641 29.7361Z" fill="#1A1A1A" stroke="#191919" stroke-miterlimit="10"/>
<path d="M26.547 45.8665C25.6647 45.8698 24.814 45.538 24.1668 44.9383L21.8342 42.804C21.4909 42.4915 21.2125 42.1143 21.015 41.6942C20.8174 41.274 20.7046 40.8191 20.6828 40.3553C20.6611 39.8915 20.7309 39.428 20.8883 38.9912C21.0457 38.5544 21.2876 38.1529 21.6002 37.8096C21.9128 37.4663 22.2899 37.1879 22.7101 36.9903C23.1302 36.7928 23.5851 36.6799 24.0489 36.6582C24.5127 36.6364 24.9762 36.7063 25.413 36.8637C25.8498 37.0211 26.2513 37.263 26.5946 37.5755L28.9193 39.7177C29.2741 40.0495 29.557 40.4506 29.7504 40.8962C29.9438 41.3418 30.0436 41.8224 30.0436 42.3082C30.0436 42.7939 29.9438 43.2745 29.7504 43.7201C29.557 44.1657 29.2741 44.5668 28.9193 44.8986C28.2794 45.5096 27.4317 45.8554 26.547 45.8665ZM24.2144 38.242C23.8234 38.2484 23.4432 38.3716 23.1228 38.5958C22.8024 38.8201 22.5564 39.135 22.4165 39.5002C22.2766 39.8654 22.2491 40.2641 22.3376 40.645C22.4261 41.026 22.6266 41.3717 22.9132 41.6377L25.2379 43.772C25.5946 44.1038 26.0638 44.2882 26.551 44.2882C27.0382 44.2882 27.5073 44.1038 27.8641 43.772C28.0603 43.5886 28.2169 43.3669 28.3238 43.1205C28.4308 42.8742 28.486 42.6085 28.486 42.3399C28.486 42.0713 28.4308 41.8056 28.3238 41.5592C28.2169 41.3129 28.0603 41.0911 27.8641 40.9078L25.5394 38.7736C25.1839 38.4305 24.7085 38.2398 24.2144 38.242Z" fill="#1A1A1A" stroke="#191919" stroke-miterlimit="10"/>
<path d="M30.5618 42.1057C29.6811 42.108 28.8317 41.7795 28.1816 41.1854L25.8569 39.0432C25.1647 38.412 24.7515 37.5315 24.7083 36.5956C24.6652 35.6597 24.9956 34.745 25.6269 34.0527C26.2581 33.3605 27.1385 32.9473 28.0744 32.9041C29.0103 32.861 29.925 33.1914 30.6173 33.8226L32.942 35.9569C33.296 36.29 33.5781 36.692 33.7709 37.1382C33.9637 37.5843 34.0632 38.0652 34.0632 38.5513C34.0632 39.0374 33.9637 39.5183 33.7709 39.9645C33.5781 40.4106 33.296 40.8126 32.942 41.1457C32.2993 41.7564 31.4483 42.0996 30.5618 42.1057ZM28.1816 34.4574C27.9253 34.4584 27.6718 34.5103 27.4358 34.61C27.1998 34.7097 26.9859 34.8553 26.8065 35.0384C26.6272 35.2214 26.4859 35.4382 26.391 35.6762C26.2961 35.9143 26.2494 36.1688 26.2536 36.425C26.2543 36.6933 26.3103 36.9587 26.4182 37.2044C26.526 37.4501 26.6834 37.671 26.8804 37.8531L29.2051 39.9953C29.4843 40.2489 29.8316 40.4153 30.2042 40.4742C30.5768 40.5331 30.9585 40.4819 31.3023 40.3268C31.6462 40.1717 31.9372 39.9196 32.1397 39.6013C32.3422 39.2831 32.4473 38.9126 32.4421 38.5354C32.4406 38.2653 32.3835 37.9984 32.2743 37.7514C32.1651 37.5043 32.0061 37.2824 31.8074 37.0994L29.4986 34.9651C29.1413 34.6327 28.6696 34.4508 28.1816 34.4574Z" fill="#1A1A1A" stroke="#191919" stroke-miterlimit="10"/>
<path d="M34.5288 38.2975C33.6474 38.3037 32.7966 37.9747 32.1486 37.3772L29.7684 35.2429C29.4144 34.9098 29.1323 34.5078 28.9395 34.0616C28.7467 33.6155 28.6472 33.1345 28.6472 32.6485C28.6472 32.1624 28.7467 31.6815 28.9395 31.2353C29.1323 30.7892 29.4144 30.3872 29.7684 30.0541C30.4122 29.4515 31.2591 29.1129 32.1409 29.1056C33.0227 29.0982 33.875 29.4226 34.5288 30.0144L36.8534 32.1566C37.2083 32.4883 37.4911 32.8895 37.6845 33.3351C37.8779 33.7807 37.9777 34.2613 37.9777 34.747C37.9777 35.2328 37.8779 35.7134 37.6845 36.159C37.4911 36.6046 37.2083 37.0057 36.8534 37.3375C36.2248 37.9352 35.396 38.2774 34.5288 38.2975ZM32.1486 30.6809C31.7568 30.6834 31.3748 30.8038 31.0524 31.0264C30.7299 31.2491 30.4819 31.5636 30.3407 31.9291C30.1995 32.2946 30.1715 32.6941 30.2605 33.0757C30.3494 33.4573 30.5512 33.8033 30.8395 34.0687L33.1642 36.2109C33.4434 36.4644 33.7907 36.6309 34.1632 36.6898C34.5358 36.7487 34.9175 36.6974 35.2614 36.5423C35.6052 36.3873 35.8963 36.1351 36.0988 35.8169C36.3013 35.4986 36.4064 35.1282 36.4012 34.751C36.4005 34.4827 36.3445 34.2173 36.2367 33.9716C36.1288 33.7259 35.9715 33.505 35.7744 33.3229L33.4498 31.1807C33.0924 30.8596 32.6291 30.6816 32.1486 30.6809Z" fill="#1A1A1A" stroke="#191919" stroke-miterlimit="10"/>
<path d="M38.4957 34.5209C37.6152 34.5223 36.766 34.194 36.1155 33.6005L33.7909 31.4583C33.4369 31.1252 33.1548 30.7232 32.962 30.2771C32.7692 29.8309 32.6697 29.35 32.6697 28.8639C32.6697 28.3779 32.7692 27.897 32.962 27.4508C33.1548 27.0046 33.4369 26.6026 33.7909 26.2695C34.4405 25.6741 35.2898 25.3438 36.1711 25.3438C37.0523 25.3438 37.9016 25.6741 38.5513 26.2695L40.8759 28.4038C41.2307 28.7355 41.5136 29.1367 41.707 29.5823C41.9004 30.0279 42.0002 30.5084 42.0002 30.9942C42.0002 31.48 41.9004 31.9606 41.707 32.4062C41.5136 32.8518 41.2307 33.2529 40.8759 33.5847C40.2291 34.1859 39.3788 34.5204 38.4957 34.5209ZM36.1711 26.8963C35.6783 26.8928 35.2034 27.0805 34.8461 27.4199C34.6496 27.604 34.4929 27.8264 34.3859 28.0734C34.2788 28.3204 34.2235 28.5868 34.2235 28.856C34.2235 29.1252 34.2788 29.3916 34.3859 29.6386C34.4929 29.8856 34.6496 30.108 34.8461 30.292L37.1628 32.4263C37.5217 32.7569 37.9918 32.9405 38.4798 32.9405C38.9678 32.9405 39.438 32.7569 39.7969 32.4263C39.9913 32.241 40.1461 32.0182 40.2519 31.7714C40.3576 31.5246 40.4122 31.2588 40.4122 30.9902C40.4122 30.7217 40.3576 30.4559 40.2519 30.2091C40.1461 29.9622 39.9913 29.7394 39.7969 29.5542L37.4723 27.4199C37.1156 27.0845 36.6448 26.8973 36.1552 26.8963H36.1711Z" fill="#1A1A1A" stroke="#191919" stroke-miterlimit="10"/>
<path d="M41.4154 30.3633C41.2532 30.3633 41.0949 30.3136 40.9618 30.2209C40.8287 30.1282 40.7273 29.9969 40.6711 29.8448C40.6149 29.6926 40.6067 29.5269 40.6475 29.3699C40.6884 29.213 40.7764 29.0723 40.8997 28.9669L44.3589 26.0313C46.2696 24.2705 47.4332 21.8448 47.6109 19.2525C47.7885 16.6603 46.9667 14.0985 45.3141 12.0935C43.6615 10.0884 41.3037 8.79247 38.7253 8.47187C36.1469 8.15126 33.5436 8.83036 31.4503 10.3696L25.5077 15.3363C25.4275 15.403 25.3349 15.4532 25.2353 15.4841C25.1357 15.515 25.0309 15.526 24.927 15.5164C24.8231 15.5068 24.7222 15.4769 24.6299 15.4283C24.5376 15.3797 24.4557 15.3134 24.389 15.2332C24.3223 15.1529 24.2721 15.0604 24.2412 14.9607C24.2103 14.8611 24.1993 14.7563 24.2089 14.6525C24.2185 14.5486 24.2485 14.4476 24.2971 14.3553C24.3457 14.263 24.4119 14.1812 24.4922 14.1145L30.4268 9.1478C32.6974 7.26887 35.5941 6.31721 38.5366 6.48347C41.4792 6.64972 44.2503 7.9216 46.2948 10.0443C47.4109 11.2147 48.2753 12.6013 48.8347 14.1187C49.3941 15.636 49.6367 17.2519 49.5475 18.8667C49.4583 20.4814 49.0392 22.0607 48.316 23.5072C47.5928 24.9537 46.5809 26.2367 45.3427 27.277L41.9232 30.2046C41.7772 30.3144 41.5978 30.3704 41.4154 30.3633Z" fill="#1A1A1A" stroke="#191919" stroke-miterlimit="10"/>
<path d="M21.5329 46.072C20.7654 46.0783 20.0185 45.8237 19.4145 45.35C18.9954 45.0245 18.655 44.6086 18.4187 44.1333C18.1825 43.658 18.0564 43.1356 18.0499 42.6049C18.0378 42.4332 18.0378 42.2609 18.0499 42.0892C17.1695 42.1818 16.2875 41.9286 15.5904 41.383C15.1737 41.0552 14.8351 40.6388 14.5991 40.164C14.3631 39.6893 14.2356 39.168 14.2257 38.6379C14.2136 38.4662 14.2136 38.2939 14.2257 38.1222C13.3456 38.2107 12.4652 37.9579 11.7662 37.416C11.3483 37.0893 11.0088 36.6732 10.7727 36.1982C10.5365 35.7231 10.4097 35.2013 10.4015 34.6709C10.3894 34.5072 10.3894 34.3427 10.4015 34.179C10.1692 34.1988 9.93565 34.1988 9.70334 34.179C9.2339 34.1217 8.78094 33.9698 8.37184 33.7325C7.96274 33.4952 7.60599 33.1775 7.32315 32.7985C6.78124 32.0448 6.54759 31.1126 6.66999 30.1924C6.79238 29.2722 7.26155 28.4335 7.98163 27.8477L15.5904 21.5005C15.6706 21.4333 15.7632 21.3825 15.8631 21.3511C15.9629 21.3198 16.068 21.3083 16.1722 21.3175C16.2765 21.3268 16.3779 21.3564 16.4707 21.4048C16.5635 21.4532 16.6458 21.5194 16.713 21.5996C16.7802 21.6799 16.8309 21.7726 16.8623 21.8724C16.8937 21.9722 16.9052 22.0773 16.8959 22.1815C16.8867 22.2858 16.8571 22.3872 16.8087 22.48C16.7603 22.5728 16.694 22.6551 16.6138 22.7223L8.99721 29.0695C8.58907 29.3937 8.31939 29.8609 8.24279 30.3765C8.16619 30.8921 8.28838 31.4175 8.58462 31.8464C8.73921 32.0625 8.93662 32.2444 9.16456 32.3809C9.39251 32.5174 9.64611 32.6056 9.90959 32.6398C10.1673 32.6688 10.4282 32.645 10.6764 32.57C10.9247 32.495 11.1551 32.3703 11.3536 32.2034L11.663 31.9495C11.824 31.8138 12.0323 31.7476 12.2421 31.7655C12.4519 31.7833 12.646 31.8838 12.7817 32.0447C12.9175 32.2057 12.9837 32.414 12.9658 32.6238C12.9479 32.8336 12.8475 33.0277 12.6865 33.1634C12.4618 33.3518 12.2823 33.5881 12.1611 33.8551C12.0399 34.1221 11.9801 34.4128 11.9862 34.7059C11.9923 34.9991 12.0641 35.2871 12.1963 35.5488C12.3285 35.8105 12.5177 36.0392 12.75 36.218C13.1134 36.4846 13.557 36.619 14.0073 36.5988C14.4575 36.5786 14.8873 36.4051 15.2254 36.1069L15.4634 35.9086C15.5431 35.8414 15.6353 35.7905 15.7346 35.759C15.834 35.7274 15.9386 35.7157 16.0424 35.7245C16.1463 35.7333 16.2475 35.7626 16.3401 35.8105C16.4327 35.8584 16.5149 35.9241 16.5821 36.0038C16.6493 36.0835 16.7001 36.1757 16.7317 36.275C16.7633 36.3744 16.775 36.479 16.7662 36.5829C16.7573 36.6868 16.7281 36.7879 16.6802 36.8805C16.6323 36.9731 16.5666 37.0553 16.4869 37.1225C16.2637 37.3095 16.0851 37.544 15.9643 37.809C15.8435 38.074 15.7835 38.3626 15.7887 38.6538C15.7928 39.0269 15.9045 39.3909 16.1106 39.7019C16.3167 40.013 16.6084 40.2579 16.9504 40.4071C17.2924 40.5563 17.6702 40.6035 18.0384 40.543C18.4066 40.4825 18.7495 40.3168 19.0258 40.066L19.2717 39.8676C19.4344 39.7504 19.6354 39.699 19.8344 39.724C20.0334 39.7489 20.2156 39.8483 20.3443 40.0021C20.4729 40.1559 20.5386 40.3528 20.528 40.5531C20.5175 40.7533 20.4314 40.9421 20.2873 41.0815C20.0625 41.269 19.883 41.5048 19.7621 41.7713C19.6412 42.0378 19.5821 42.3282 19.5891 42.6207C19.5897 42.9954 19.6994 43.3618 19.9049 43.675C20.1104 43.9883 20.4027 44.2349 20.7461 44.3848C21.0895 44.5346 21.4691 44.5811 21.8385 44.5186C22.2079 44.4561 22.5511 44.2874 22.8261 44.033L23.6592 43.3348C23.8202 43.1991 24.0285 43.1329 24.2383 43.1507C24.4481 43.1686 24.6422 43.2691 24.7779 43.43C24.9136 43.591 24.9798 43.7993 24.962 44.0091C24.9441 44.2189 24.8437 44.413 24.6827 44.5487L23.8417 45.2548C23.1883 45.7833 22.3733 46.0718 21.5329 46.072Z" fill="#1A1A1A" stroke="#191919" stroke-miterlimit="10"/>
<path d="M20.1031 24.908L11.7327 31.9043L12.7503 33.1218L21.1207 26.1255L20.1031 24.908Z" fill="#1A1A1A" stroke="#191919" stroke-miterlimit="10"/>
<path d="M23.7845 28.9871L15.5298 35.8867L16.5474 37.1042L24.8022 30.2046L23.7845 28.9871Z" fill="#1A1A1A" stroke="#191919" stroke-miterlimit="10"/>
<path d="M19.6366 41.3909C19.52 41.3911 19.4049 41.3656 19.2993 41.3163C19.1937 41.2669 19.1003 41.1949 19.0257 41.1053C18.9589 41.0251 18.9085 40.9326 18.8775 40.8329C18.8466 40.7333 18.8356 40.6285 18.8451 40.5246C18.8547 40.4207 18.8847 40.3196 18.9334 40.2273C18.9821 40.135 19.0485 40.0532 19.1288 39.9866L20.9854 38.3998C21.0651 38.3326 21.1572 38.2818 21.2566 38.2502C21.3559 38.2186 21.4605 38.2069 21.5644 38.2158C21.6683 38.2246 21.7694 38.2538 21.862 38.3017C21.9546 38.3497 22.0369 38.4153 22.1041 38.495C22.1713 38.5748 22.2221 38.6669 22.2537 38.7663C22.2853 38.8656 22.297 38.9702 22.2881 39.0741C22.2793 39.178 22.2501 39.2791 22.2022 39.3717C22.1543 39.4643 22.0885 39.5465 22.0088 39.6137L20.1443 41.2005C20.0027 41.3217 19.8229 41.3891 19.6366 41.3909Z" fill="#1A1A1A" stroke="#191919" stroke-miterlimit="10"/>
<path d="M18.0579 23.1357C16.2889 23.1273 14.5954 22.4176 13.349 21.1623C12.1026 19.9069 11.405 18.2085 11.4092 16.4395H12.996C12.9918 17.7876 13.5222 19.0825 14.471 20.0403C15.4199 20.998 16.7097 21.5406 18.0579 21.5489C18.822 21.5495 19.5763 21.3762 20.2636 21.0422C20.9509 20.7081 21.5532 20.2222 22.0249 19.621L23.2705 20.6048C22.6518 21.3958 21.8605 22.035 20.9572 22.4736C20.0538 22.9123 19.0621 23.1387 18.0579 23.1357Z" fill="#1A1A1A" stroke="#191919" stroke-miterlimit="10"/>
<path d="M39.662 4.81511C39.3752 4.40554 39.0454 4.02785 38.6782 3.68849L39.7413 2.51426C40.2041 2.92808 40.6144 3.39703 40.9632 3.91064L39.662 4.81511ZM37.4563 2.81574C37.0203 2.56956 36.557 2.37518 36.0758 2.23657L36.5201 0.713241C37.1177 0.885896 37.6929 1.12823 38.2339 1.43524L37.4563 2.81574ZM34.6001 2.02234H32.9419V0.435547H34.2193H34.6636L34.6001 2.02234Z" fill="#C22229" stroke="#B72529" stroke-miterlimit="10"/>
<path d="M10.3222 4.81498L9.021 3.90258C9.37706 3.39472 9.78966 2.92892 10.2508 2.51413L11.3139 3.69629C10.9404 4.02881 10.6075 4.40432 10.3222 4.81498ZM12.5279 2.82356L11.7345 1.43511C12.2773 1.13392 12.8521 0.894403 13.4482 0.721042L13.8925 2.24437C13.4178 2.38355 12.9601 2.57515 12.5279 2.81561V2.82356ZM15.392 2.03016L15.3047 0.443359H17.0264V2.03016H15.392Z" fill="#C22229" stroke="#B72529" stroke-miterlimit="10"/>
</g>
<defs>
<clipPath id="clip0_767_702">
<rect width="50" height="46.4694" fill="white"/>
</clipPath>
</defs>
</svg>
