<svg width="236" height="36" viewBox="0 0 236 36" fill="none" xmlns="http://www.w3.org/2000/svg">
<path d="M36.5175 0H0V36H36.5175V0Z" fill="#B8292D"/>
<path d="M12.3494 23.8257C13.2832 23.9004 14.1834 24.2037 14.9683 24.708C15.7532 25.2122 16.3981 25.9016 16.8446 26.7136C17.312 27.5336 17.5474 28.4621 17.5265 29.4024H14.4707C14.3192 29.4024 14.2687 29.4024 14.2434 29.2281C14.2243 28.8332 14.1028 28.4496 13.8906 28.114C13.6784 27.7784 13.3825 27.502 13.0312 27.3111C12.6757 27.1434 12.2852 27.0601 11.8912 27.0678C11.4971 27.0755 11.1103 27.174 10.7618 27.3555C10.4132 27.537 10.1126 27.7963 9.884 28.1129C9.65537 28.4294 9.50508 28.7943 9.44515 29.1783C9.43289 29.2526 9.43289 29.3282 9.44515 29.4024H6.16211C6.1929 28.0152 6.72073 26.6834 7.6521 25.6431C8.58469 24.6059 9.88748 23.9637 11.2887 23.8506C10.9909 23.7987 10.6959 23.7323 10.4048 23.6514C9.44473 23.408 8.56728 22.918 7.86189 22.2314C7.15651 21.5447 6.64841 20.686 6.3894 19.7427C6.28509 19.3091 6.21751 18.8678 6.18736 18.4232C6.18736 18.2738 6.18736 18.224 6.33889 18.224H9.26837C9.4199 18.224 9.44515 18.224 9.4704 18.4232C9.50001 18.7755 9.60541 19.1176 9.77959 19.4267C9.95377 19.7358 10.1927 20.0048 10.4806 20.2157C10.8371 20.4299 11.2419 20.5536 11.6588 20.5758C12.0756 20.598 12.4916 20.5179 12.8694 20.3428C13.2472 20.1676 13.5751 19.9029 13.8237 19.5723C14.0723 19.2416 14.2339 18.8554 14.2939 18.4481C14.2939 18.2738 14.2939 18.224 14.496 18.224H17.375C17.5265 18.224 17.577 18.224 17.577 18.4232C17.5266 19.6191 17.094 20.7686 16.3411 21.7076C15.5882 22.6466 14.5535 23.3269 13.3848 23.6514L12.3494 23.8257Z" fill="white"/>
<path d="M30.3805 23.7511V29.2034C30.3805 29.3527 30.3805 29.4025 30.1785 29.4025H18.8394C18.8394 25.7179 18.8394 21.9336 18.8394 18.3237C18.8394 18.1494 18.8394 18.1245 19.0666 18.1245H30.3805V23.7511ZM25.9105 26.2407H26.8954C27.047 26.2407 27.0975 26.2407 27.0975 26.0415C27.0975 24.5726 27.0975 23.1287 27.0975 21.6598C27.0975 21.5104 27.0975 21.4606 26.8954 21.4606H22.3244C22.3244 21.4606 22.1224 21.4606 22.1224 21.6349C22.1224 23.1785 22.1224 24.722 22.1224 26.2407H25.9105Z" fill="white"/>
<path d="M11.7682 5.9502C10.6643 5.9502 9.58527 6.27289 8.66745 6.87746C7.74963 7.48204 7.03428 8.34134 6.61186 9.34672C6.18943 10.3521 6.0789 11.4584 6.29425 12.5257C6.50961 13.593 7.04116 14.5733 7.8217 15.3428C8.60224 16.1123 9.59671 16.6363 10.6793 16.8486C11.762 17.0609 12.8842 16.952 13.904 16.5355C14.9238 16.1191 15.7955 15.4139 16.4088 14.5091C17.022 13.6042 17.3493 12.5405 17.3493 11.4523C17.3493 9.99303 16.7613 8.59355 15.7147 7.56171C14.668 6.52987 13.2484 5.9502 11.7682 5.9502ZM11.7682 14.0166C11.2687 14.0166 10.7804 13.8706 10.3651 13.597C9.94983 13.3234 9.62614 12.9346 9.435 12.4797C9.24386 12.0248 9.19385 11.5242 9.29129 11.0413C9.38874 10.5583 9.62926 10.1147 9.98244 9.76652C10.3356 9.41834 10.7856 9.18123 11.2755 9.08517C11.7654 8.98911 12.2732 9.03841 12.7346 9.22684C13.1961 9.41528 13.5905 9.73438 13.868 10.1438C14.1455 10.5532 14.2936 11.0346 14.2936 11.527C14.2936 12.1872 14.0275 12.8205 13.5539 13.2874C13.0803 13.7543 12.438 14.0166 11.7682 14.0166Z" fill="white"/>
<path d="M30.3805 9.9834H18.8394V12.9212H30.3805V9.9834Z" fill="white"/>
<path d="M30.3805 14.0166H18.8394V16.9544H30.3805V14.0166Z" fill="white"/>
<path d="M30.3805 5.9502H18.8394V8.88795H30.3805V5.9502Z" fill="white"/>
<path d="M64.2212 12.7468C64.2745 13.6995 64.1245 14.6526 63.7808 15.5446C63.4371 16.4366 62.9075 17.2476 62.2261 17.9252C60.7114 19.1663 58.8039 19.8458 56.8343 19.8458C54.8647 19.8458 52.9572 19.1663 51.4425 17.9252C50.7611 17.2476 50.2315 16.4366 49.8878 15.5446C49.5442 14.6526 49.3942 13.6995 49.4475 12.7468C49.3926 11.7917 49.5444 10.8361 49.8927 9.94334C50.241 9.05055 50.7779 8.24098 51.4678 7.56833C52.9785 6.32908 54.8817 5.65054 56.8469 5.65054C58.8122 5.65054 60.7154 6.32908 62.2261 7.56833C62.9075 8.24594 63.4371 9.05693 63.7808 9.94892C64.1245 10.8409 64.2745 11.794 64.2212 12.7468ZM60.2815 12.7468C60.3431 11.6839 60.001 10.6366 59.3218 9.80899C59.0044 9.45814 58.6153 9.17739 58.1801 8.98516C57.7449 8.79293 57.2733 8.69355 56.7964 8.69355C56.3195 8.69355 55.848 8.79293 55.4128 8.98516C54.9776 9.17739 54.5885 9.45814 54.271 9.80899C53.6389 10.6618 53.2982 11.6906 53.2982 12.7468C53.2982 13.8029 53.6389 14.8318 54.271 15.6845C54.584 16.0426 54.9716 16.3299 55.4074 16.5268C55.8432 16.7237 56.317 16.8257 56.7964 16.8257C57.2759 16.8257 57.7496 16.7237 58.1855 16.5268C58.6213 16.3299 59.0089 16.0426 59.3218 15.6845C60.001 14.8569 60.3431 13.8096 60.2815 12.7468ZM73.7672 14.6638H69.8276V22.8795H65.7364V5.45215H69.8023V11.9501H73.742L73.7672 14.6638Z" fill="#2D2D2D"/>
<path d="M89.7534 12.7468C89.8018 13.7011 89.6471 14.6549 89.2991 15.5468C88.9512 16.4386 88.4177 17.2488 87.733 17.9252C86.2022 19.1631 84.2834 19.8397 82.3034 19.8397C80.3234 19.8397 78.4046 19.1631 76.8737 17.9252C76.1891 17.2488 75.6556 16.4386 75.3076 15.5468C74.9597 14.6549 74.805 13.7011 74.8534 12.7468C74.8082 11.7906 74.9669 10.8357 75.3193 9.94374C75.6716 9.05177 76.2098 8.24256 76.899 7.56833C78.4238 6.32784 80.3391 5.64934 82.316 5.64934C84.293 5.64934 86.2082 6.32784 87.733 7.56833C88.4177 8.24471 88.9512 9.05489 89.2991 9.94675C89.6471 10.8386 89.8018 11.7924 89.7534 12.7468ZM85.7379 12.7468C85.8067 11.6872 85.4737 10.6402 84.8035 9.80899C84.484 9.46161 84.0942 9.184 83.6592 8.99401C83.2243 8.80403 82.7538 8.70589 82.2781 8.70589C81.8024 8.70589 81.332 8.80403 80.897 8.99401C80.4621 9.184 80.0723 9.46161 79.7527 9.80899C79.1206 10.6618 78.7799 11.6906 78.7799 12.7468C78.7799 13.8029 79.1206 14.8318 79.7527 15.6845C80.068 16.0389 80.4563 16.3229 80.8918 16.5174C81.3274 16.712 81.8 16.8126 82.2781 16.8126C82.7563 16.8126 83.2289 16.712 83.6644 16.5174C84.0999 16.3229 84.4883 16.0389 84.8035 15.6845C85.4737 14.8533 85.8067 13.8063 85.7379 12.7468ZM95.5871 22.8795H91.5211V5.45215H95.5871V22.8795Z" fill="#2D2D2D"/>
<path d="M117.886 22.8797H113.719V21.112C112.75 21.8754 111.59 22.3657 110.361 22.5311C108.264 22.9284 106.13 23.0954 103.997 23.0291C102.9 23.0393 101.804 22.9894 100.713 22.8797C100.347 22.867 99.9878 22.7758 99.6607 22.6124C99.3336 22.449 99.0465 22.2174 98.8194 21.9336C98.4696 21.3567 98.3108 20.6866 98.3648 20.0166V5.90043H110.032V8.53943H102.456V12.6971H109.704V15.1867H102.532V19.2199C102.518 19.32 102.524 19.4219 102.551 19.5194C102.578 19.6169 102.625 19.7079 102.689 19.7871C102.753 19.8662 102.832 19.9317 102.922 19.9798C103.012 20.0278 103.112 20.0573 103.214 20.0664C104.245 20.1791 105.282 20.2289 106.32 20.2158C107.817 20.2625 109.315 20.154 110.79 19.8921C111.534 19.7747 112.252 19.5304 112.911 19.1701C113.197 18.9659 113.426 18.6955 113.581 18.3829C113.735 18.0702 113.808 17.725 113.795 17.3776V5.55188H117.886V22.8797Z" fill="#2D2D2D"/>
<path d="M137.206 18.6723H133.746V12.9711H132.155C131.975 14.3781 131.251 15.6624 130.134 16.5561C128.954 17.4421 127.5 17.8994 126.018 17.8507C125.179 17.9109 124.336 17.7914 123.548 17.5004C122.761 17.2094 122.046 16.7539 121.453 16.165C120.861 15.5761 120.404 14.8679 120.116 14.0888C119.827 13.3098 119.712 12.4783 119.78 11.6516C119.712 10.8248 119.827 9.99338 120.116 9.21432C120.404 8.43526 120.861 7.727 121.453 7.13813C122.046 6.54926 122.761 6.09371 123.548 5.80274C124.336 5.51176 125.179 5.39225 126.018 5.4524C127.509 5.39791 128.973 5.85551 130.16 6.747C131.283 7.64235 132.001 8.94065 132.155 10.357H133.746V5.55198H137.206V18.6723ZM128.695 11.6516C128.765 10.7616 128.504 9.87697 127.963 9.16194C127.72 8.88999 127.421 8.67337 127.085 8.52718C126.749 8.38099 126.385 8.30874 126.018 8.31547C125.653 8.29984 125.29 8.36821 124.957 8.51514C124.624 8.66207 124.33 8.88353 124.099 9.16194C123.621 9.87463 123.366 10.7101 123.366 11.5644C123.366 12.4188 123.621 13.2542 124.099 13.9669C124.325 14.2529 124.617 14.4813 124.951 14.633C125.285 14.7846 125.651 14.855 126.018 14.8383C126.389 14.8529 126.758 14.7817 127.095 14.6304C127.433 14.4791 127.73 14.2518 127.963 13.9669C128.466 13.2996 128.725 12.483 128.695 11.6516ZM142.181 21.6101L141.726 28.9296H138.089V23.1536C138.106 23.0508 138.098 22.9455 138.066 22.8462C138.034 22.7469 137.979 22.6563 137.906 22.5815C137.832 22.5066 137.742 22.4496 137.643 22.415C137.543 22.3804 137.437 22.369 137.332 22.3819H124.983V19.8175H140.514C140.752 19.7839 140.995 19.8077 141.222 19.8867C141.448 19.9658 141.652 20.0978 141.816 20.2715C141.98 20.4452 142.099 20.6554 142.162 20.8842C142.226 21.113 142.232 21.3535 142.181 21.5852V21.6101ZM142.181 18.747H138.519V5.55198H142.08L142.181 18.747Z" fill="#2D2D2D"/>
<path d="M167.208 22.8548H144.024V20.2407H167.182L167.208 22.8548ZM165.768 15.386L164.682 17.8756C162.722 17.4999 160.853 16.7561 159.177 15.6847C157.681 14.8064 156.458 13.5406 155.641 12.025C154.95 13.5225 153.837 14.7928 152.434 15.6847C150.704 16.839 148.78 17.682 146.752 18.1743L145.565 15.6847C150.868 14.1909 153.52 11.3777 153.52 7.19508V6.24902H157.712V7.26977C157.726 9.13059 158.468 10.9144 159.783 12.249C161.471 13.8007 163.53 14.9056 165.768 15.4606V15.386Z" fill="#2D2D2D"/>
<path d="M181.704 7.89213L181.275 22.2075H170.415C169.826 22.2665 169.238 22.0968 168.774 21.7345C168.588 21.51 168.45 21.2512 168.368 20.9732C168.285 20.6953 168.26 20.4039 168.294 20.1162V5.92532H179.759C180.029 5.8799 180.307 5.89986 180.567 5.98347C180.828 6.06709 181.064 6.21187 181.255 6.40536C181.447 6.59884 181.587 6.83525 181.666 7.09423C181.744 7.35322 181.757 7.62704 181.704 7.89213ZM177.537 19.5934V9.18673C177.537 8.7635 177.335 8.56433 176.931 8.56433H172.36V18.9212C172.36 19.3693 172.612 19.5934 173.092 19.5934H177.537ZM192.21 15.4606H188.27V24.3735H184.204V5.55188H188.27V12.8465H192.21V15.4606Z" fill="#2D2D2D"/>
<path d="M208.928 24.0996H205.443V14.9129H202.109C200.535 18.5515 197.898 21.6456 194.533 23.8008L192.487 21.6847C195.016 19.914 197.028 17.5184 198.321 14.7386C197.628 14.8523 196.927 14.9106 196.225 14.9129H192.79V12.2988H199.053C199.239 11.2799 199.332 10.2468 199.331 9.21163C199.339 9.11913 199.327 9.02599 199.294 8.93902C199.261 8.85205 199.208 8.77346 199.14 8.70901C199.073 8.64456 198.991 8.59588 198.902 8.56653C198.812 8.53719 198.718 8.52793 198.624 8.53943H193.068V5.90043H201.427C201.949 5.84289 202.474 5.98552 202.892 6.29877C203.05 6.49285 203.168 6.71619 203.237 6.95562C203.306 7.19505 203.326 7.44575 203.296 7.69296C203.309 9.2397 203.156 10.7835 202.841 12.2988H205.367V5.55188H208.928V24.0996ZM214.155 24.3735H210.544V5.55188H214.155V24.3735Z" fill="#2D2D2D"/>
<path d="M236 18.4481H231.909V16.1328C230.986 16.9175 229.856 17.427 228.651 17.6017C226.152 18.0494 223.613 18.2413 221.075 18.1743C220.064 18.1743 219.256 18.1743 218.549 18.1743C218.185 18.1646 217.827 18.0773 217.5 17.9183C217.173 17.7593 216.885 17.5323 216.655 17.2531C216.313 16.655 216.155 15.9715 216.201 15.2863V5.87553H227.868V8.36516H220.292V10.4564H227.59V12.9461H220.494V14.3901C220.494 14.888 220.721 15.1867 221.176 15.2365C221.941 15.2846 222.708 15.2846 223.474 15.2365C225.323 15.2725 227.172 15.1642 229.004 14.9129C229.81 14.8548 230.589 14.6072 231.277 14.1909C231.503 14.0045 231.679 13.7661 231.789 13.4969C231.899 13.2277 231.94 12.9359 231.909 12.6473V5.55188H236V18.4481ZM235.697 24.1494C235.714 24.8957 235.555 25.6356 235.23 26.3101C234.906 26.9845 234.425 27.5746 233.828 28.0332C232.272 29.0555 230.445 29.601 228.575 29.601C226.706 29.601 224.878 29.0555 223.322 28.0332C222.725 27.5746 222.244 26.9845 221.92 26.3101C221.595 25.6356 221.436 24.8957 221.453 24.1494C221.442 23.3909 221.607 22.64 221.936 21.954C222.264 21.2679 222.747 20.6649 223.347 20.1909C224.848 19.0789 226.702 18.5315 228.575 18.6473C230.458 18.5479 232.317 19.1029 233.828 20.2158C234.421 20.6897 234.897 21.2898 235.22 21.9711C235.544 22.6524 235.707 23.3971 235.697 24.1494ZM231.732 24.1494C231.75 23.7751 231.682 23.4016 231.533 23.0568C231.385 22.7119 231.159 22.4046 230.873 22.1577C230.237 21.6181 229.413 21.3417 228.575 21.3859C227.744 21.3376 226.927 21.615 226.302 22.1577C226.024 22.4095 225.803 22.7155 225.651 23.0562C225.499 23.3969 225.421 23.7649 225.421 24.1369C225.421 24.509 225.499 24.877 225.651 25.2177C225.803 25.5584 226.024 25.8644 226.302 26.1162C226.936 26.6407 227.749 26.9078 228.575 26.8631C229.409 26.9042 230.228 26.638 230.873 26.1162C231.156 25.872 231.379 25.5687 231.528 25.2284C231.676 24.8882 231.746 24.5195 231.732 24.1494Z" fill="#2D2D2D"/>
<path d="M93.7939 19.917H93.415V20.2904H93.7939V19.917Z" fill="#2D2D2D"/>
</svg>
