<svg width="236" height="36" viewBox="0 0 236 36" fill="none" xmlns="http://www.w3.org/2000/svg">
<g clip-path="url(#clip0_144_906)">
<path d="M36.5175 0H0V36H36.5175V0Z" fill="#B8292D"/>
<path d="M12.3493 23.8254C13.2831 23.9002 14.1833 24.2034 14.9682 24.7077C15.7531 25.212 16.398 25.9014 16.8445 26.7134C17.3119 27.5333 17.5474 28.4619 17.5264 29.4022H14.4706C14.3191 29.4022 14.2686 29.4022 14.2433 29.2279C14.2242 28.8329 14.1027 28.4493 13.8905 28.1138C13.6783 27.7782 13.3824 27.5018 13.0311 27.3109C12.6756 27.1432 12.2852 27.0598 11.8911 27.0675C11.497 27.0752 11.1102 27.1738 10.7617 27.3552C10.4131 27.5367 10.1125 27.7961 9.8839 28.1126C9.65528 28.4292 9.50499 28.794 9.44506 29.1781C9.4328 29.2523 9.4328 29.328 9.44506 29.4022H6.16202C6.19281 28.0149 6.72064 26.6832 7.65201 25.6428C8.5846 24.6057 9.88738 23.9635 11.2886 23.8503C10.9908 23.7985 10.6958 23.732 10.4047 23.6511C9.44464 23.4078 8.56719 22.9178 7.8618 22.2311C7.15642 21.5445 6.64832 20.6857 6.38931 19.7424C6.28499 19.3089 6.21742 18.8675 6.18727 18.4229C6.18727 18.2735 6.18727 18.2238 6.3388 18.2238H9.26828C9.4198 18.2238 9.44506 18.2238 9.47031 18.4229C9.49992 18.7753 9.60532 19.1174 9.7795 19.4265C9.95368 19.7356 10.1926 20.0045 10.4805 20.2155C10.837 20.4296 11.2418 20.5534 11.6587 20.5755C12.0755 20.5977 12.4915 20.5176 12.8693 20.3425C13.2471 20.1674 13.575 19.9027 13.8236 19.572C14.0722 19.2414 14.2338 18.8551 14.2939 18.4478C14.2939 18.2735 14.2939 18.2238 14.4959 18.2238H17.3749C17.5264 18.2238 17.5769 18.2238 17.5769 18.4229C17.5265 19.6188 17.0939 20.7684 16.341 21.7074C15.5881 22.6464 14.5534 23.3267 13.3847 23.6511L12.3493 23.8254Z" fill="white"/>
<path d="M30.3808 23.7507V29.203C30.3808 29.3524 30.3808 29.4022 30.1787 29.4022H18.8396C18.8396 25.7175 18.8396 21.9333 18.8396 18.3233C18.8396 18.149 18.8396 18.1241 19.0669 18.1241H30.3808V23.7507ZM25.9108 26.2403H26.8957C27.0472 26.2403 27.0977 26.2403 27.0977 26.0412C27.0977 24.5723 27.0977 23.1283 27.0977 21.6594C27.0977 21.51 27.0977 21.4602 26.8957 21.4602H22.3247C22.3247 21.4602 22.1227 21.4602 22.1227 21.6345C22.1227 23.1781 22.1227 24.7217 22.1227 26.2403H25.9108Z" fill="white"/>
<path d="M11.7685 5.95044C10.6646 5.95044 9.58554 6.27313 8.66773 6.87771C7.74991 7.48228 7.03456 8.34159 6.61213 9.34696C6.18971 10.3523 6.07918 11.4586 6.29453 12.5259C6.50988 13.5932 7.04144 14.5736 7.82198 15.3431C8.60252 16.1125 9.59698 16.6366 10.6796 16.8489C11.7623 17.0612 12.8844 16.9522 13.9043 16.5358C14.9241 16.1193 15.7958 15.4141 16.409 14.5093C17.0223 13.6045 17.3496 12.5407 17.3496 11.4525C17.3496 9.99327 16.7616 8.5938 15.7149 7.56196C14.6683 6.53012 13.2487 5.95044 11.7685 5.95044ZM11.7685 14.0168C11.269 14.0168 10.7807 13.8708 10.3654 13.5973C9.95011 13.3237 9.62642 12.9349 9.43528 12.4799C9.24413 12.025 9.19412 11.5244 9.29157 11.0415C9.38901 10.5586 9.62953 10.1149 9.98272 9.76677C10.3359 9.41859 10.7859 9.18147 11.2758 9.08541C11.7657 8.98935 12.2734 9.03865 12.7349 9.22709C13.1964 9.41552 13.5908 9.73462 13.8683 10.144C14.1458 10.5535 14.2939 11.0348 14.2939 11.5272C14.2939 12.1875 14.0278 12.8207 13.5542 13.2876C13.0806 13.7545 12.4382 14.0168 11.7685 14.0168Z" fill="white"/>
<path d="M30.3808 9.98303H18.8396V12.9208H30.3808V9.98303Z" fill="white"/>
<path d="M30.3808 14.0164H18.8396V16.9541H30.3808V14.0164Z" fill="white"/>
<path d="M30.3808 5.95044H18.8396V8.8882H30.3808V5.95044Z" fill="white"/>
<path d="M64.2213 12.7468C64.2747 13.6995 64.1246 14.6526 63.781 15.5446C63.4373 16.4366 62.9077 17.2476 62.2263 17.9252C60.7116 19.1663 58.8041 19.8458 56.8345 19.8458C54.8649 19.8458 52.9574 19.1663 51.4427 17.9252C50.7613 17.2476 50.2317 16.4366 49.888 15.5446C49.5444 14.6526 49.3943 13.6995 49.4477 12.7468C49.3928 11.7917 49.5446 10.8361 49.8929 9.94334C50.2412 9.05055 50.7781 8.24098 51.468 7.56833C52.9786 6.32908 54.8818 5.65054 56.8471 5.65054C58.8124 5.65054 60.7156 6.32908 62.2263 7.56833C62.9077 8.24594 63.4373 9.05693 63.781 9.94892C64.1246 10.8409 64.2747 11.794 64.2213 12.7468ZM60.2817 12.7468C60.3433 11.6839 60.0012 10.6366 59.322 9.80899C59.0046 9.45814 58.6155 9.17739 58.1803 8.98516C57.745 8.79293 57.2735 8.69355 56.7966 8.69355C56.3197 8.69355 55.8482 8.79293 55.413 8.98516C54.9777 9.17739 54.5886 9.45814 54.2712 9.80899C53.6391 10.6618 53.2984 11.6906 53.2984 12.7468C53.2984 13.8029 53.6391 14.8318 54.2712 15.6845C54.5841 16.0426 54.9717 16.3299 55.4076 16.5268C55.8434 16.7237 56.3172 16.8257 56.7966 16.8257C57.276 16.8257 57.7498 16.7237 58.1857 16.5268C58.6215 16.3299 59.0091 16.0426 59.322 15.6845C60.0012 14.8569 60.3433 13.8096 60.2817 12.7468ZM73.7674 14.6638H69.8278V22.8795H65.7366V5.45215H69.8025V11.9501H73.7422L73.7674 14.6638Z" fill="white"/>
<path d="M89.7532 12.7468C89.8017 13.7011 89.6469 14.6549 89.299 15.5468C88.951 16.4386 88.4175 17.2488 87.7329 17.9252C86.202 19.1631 84.2832 19.8397 82.3032 19.8397C80.3232 19.8397 78.4044 19.1631 76.8736 17.9252C76.1889 17.2488 75.6554 16.4386 75.3075 15.5468C74.9595 14.6549 74.8048 13.7011 74.8533 12.7468C74.8081 11.7906 74.9668 10.8357 75.3191 9.94374C75.6715 9.05177 76.2096 8.24256 76.8988 7.56833C78.4236 6.32784 80.3389 5.64934 82.3159 5.64934C84.2928 5.64934 86.2081 6.32784 87.7329 7.56833C88.4175 8.24471 88.951 9.05489 89.299 9.94675C89.6469 10.8386 89.8017 11.7924 89.7532 12.7468ZM85.7378 12.7468C85.8065 11.6872 85.4735 10.6402 84.8034 9.80899C84.4838 9.46161 84.094 9.184 83.6591 8.99401C83.2241 8.80403 82.7537 8.70589 82.278 8.70589C81.8023 8.70589 81.3318 8.80403 80.8969 8.99401C80.4619 9.184 80.0721 9.46161 79.7526 9.80899C79.1205 10.6618 78.7798 11.6906 78.7798 12.7468C78.7798 13.8029 79.1205 14.8318 79.7526 15.6845C80.0678 16.0389 80.4562 16.3229 80.8917 16.5174C81.3272 16.712 81.7998 16.8126 82.278 16.8126C82.7561 16.8126 83.2288 16.712 83.6643 16.5174C84.0998 16.3229 84.4881 16.0389 84.8034 15.6845C85.4735 14.8533 85.8065 13.8063 85.7378 12.7468ZM95.5869 22.8795H91.521V5.45215H95.5869V22.8795Z" fill="white"/>
<path d="M117.886 22.8797H113.719V21.112C112.75 21.8754 111.59 22.3657 110.361 22.5311C108.264 22.9284 106.13 23.0954 103.997 23.0291C102.9 23.0393 101.804 22.9894 100.714 22.8797C100.347 22.867 99.9879 22.7758 99.6608 22.6124C99.3337 22.449 99.0466 22.2174 98.8195 21.9336C98.4697 21.3567 98.3109 20.6866 98.3649 20.0166V5.90043H110.032V8.53943H102.456V12.6971H109.704V15.1867H102.532V19.2199C102.518 19.32 102.524 19.4219 102.551 19.5194C102.578 19.6169 102.625 19.7079 102.689 19.7871C102.753 19.8662 102.832 19.9317 102.922 19.9798C103.013 20.0278 103.112 20.0573 103.214 20.0664C104.245 20.1791 105.282 20.2289 106.32 20.2158C107.817 20.2625 109.316 20.154 110.79 19.8921C111.534 19.7747 112.252 19.5304 112.911 19.1701C113.197 18.9659 113.427 18.6955 113.581 18.3829C113.735 18.0702 113.809 17.725 113.795 17.3776V5.55188H117.886V22.8797Z" fill="white"/>
<path d="M137.206 18.6724H133.746V12.9712H132.155C131.975 14.3782 131.252 15.6626 130.135 16.5563C128.955 17.4423 127.501 17.8995 126.018 17.8509C125.179 17.911 124.337 17.7915 123.549 17.5005C122.761 17.2095 122.046 16.754 121.453 16.1651C120.861 15.5763 120.405 14.868 120.116 14.0889C119.827 13.3099 119.713 12.4784 119.78 11.6517C119.713 10.8249 119.827 9.99351 120.116 9.21444C120.405 8.43538 120.861 7.72712 121.453 7.13825C122.046 6.54938 122.761 6.09383 123.549 5.80286C124.337 5.51189 125.179 5.39237 126.018 5.45252C127.509 5.39803 128.973 5.85563 130.16 6.74713C131.284 7.64247 132.001 8.94077 132.155 10.3571H133.746V5.55211H137.206V18.6724ZM128.695 11.6517C128.765 10.7618 128.505 9.87709 127.963 9.16206C127.72 8.89011 127.421 8.67349 127.085 8.5273C126.749 8.38111 126.385 8.30887 126.018 8.31559C125.654 8.29997 125.29 8.36833 124.957 8.51526C124.624 8.6622 124.33 8.88365 124.099 9.16206C123.621 9.87476 123.366 10.7102 123.366 11.5646C123.366 12.4189 123.621 13.2543 124.099 13.967C124.325 14.2531 124.617 14.4815 124.951 14.6331C125.285 14.7847 125.651 14.8551 126.018 14.8384C126.389 14.853 126.758 14.7818 127.095 14.6305C127.433 14.4792 127.73 14.252 127.963 13.967C128.467 13.2998 128.725 12.4831 128.695 11.6517ZM142.181 21.6102L141.726 28.9297H138.09V23.1538C138.106 23.0509 138.098 22.9457 138.066 22.8464C138.034 22.7471 137.98 22.6564 137.906 22.5816C137.833 22.5068 137.743 22.4498 137.643 22.4151C137.543 22.3805 137.437 22.3691 137.332 22.382H124.983V19.8177H140.514C140.752 19.7841 140.995 19.8078 141.222 19.8869C141.449 19.9659 141.653 20.0979 141.816 20.2716C141.98 20.4453 142.099 20.6556 142.162 20.8843C142.226 21.1131 142.232 21.3536 142.181 21.5853V21.6102ZM142.181 18.7471H138.519V5.55211H142.08L142.181 18.7471Z" fill="white"/>
<path d="M167.208 22.8543H144.024V20.2402H167.182L167.208 22.8543ZM165.768 15.3855L164.682 17.8751C162.722 17.4994 160.853 16.7556 159.177 15.6842C157.681 14.8059 156.458 13.5401 155.641 12.0245C154.95 13.5221 153.837 14.7923 152.434 15.6842C150.704 16.8386 148.78 17.6815 146.752 18.1738L145.565 15.6842C150.868 14.1904 153.52 11.3772 153.52 7.1946V6.24854H157.712V7.26929C157.726 9.13011 158.468 10.9139 159.783 12.2485C161.471 13.8003 163.53 14.9052 165.768 15.4602V15.3855Z" fill="white"/>
<path d="M181.704 7.89213L181.274 22.2075H170.415C169.826 22.2665 169.237 22.0968 168.773 21.7345C168.588 21.51 168.45 21.2512 168.367 20.9732C168.285 20.6953 168.26 20.4039 168.294 20.1162V5.92532H179.759C180.029 5.8799 180.307 5.89986 180.567 5.98347C180.828 6.06709 181.064 6.21187 181.255 6.40536C181.446 6.59884 181.587 6.83525 181.665 7.09423C181.743 7.35322 181.757 7.62704 181.704 7.89213ZM177.537 19.5934V9.18673C177.537 8.7635 177.335 8.56433 176.931 8.56433H172.36V18.9212C172.36 19.3693 172.612 19.5934 173.092 19.5934H177.537ZM192.209 15.4606H188.27V24.3735H184.204V5.55188H188.27V12.8465H192.209V15.4606Z" fill="white"/>
<path d="M208.927 24.0996H205.442V14.9129H202.109C200.535 18.5515 197.897 21.6456 194.533 23.8008L192.487 21.6847C195.016 19.914 197.028 17.5184 198.321 14.7386C197.628 14.8523 196.927 14.9106 196.225 14.9129H192.79V12.2988H199.053C199.239 11.2799 199.332 10.2468 199.331 9.21163C199.339 9.11913 199.326 9.02599 199.293 8.93902C199.26 8.85205 199.208 8.77346 199.14 8.70901C199.072 8.64456 198.991 8.59588 198.902 8.56653C198.812 8.53719 198.717 8.52793 198.624 8.53943H193.068V5.90043H201.427C201.949 5.84289 202.473 5.98552 202.892 6.29877C203.05 6.49285 203.167 6.71619 203.237 6.95562C203.306 7.19505 203.326 7.44575 203.296 7.69296C203.309 9.2397 203.156 10.7835 202.841 12.2988H205.367V5.55188H208.927V24.0996ZM214.155 24.3735H210.544V5.55188H214.155V24.3735Z" fill="white"/>
<path d="M236 18.4481H231.909V16.1328C230.986 16.9175 229.856 17.427 228.651 17.6017C226.152 18.0494 223.613 18.2413 221.075 18.1743C220.065 18.1743 219.257 18.1743 218.549 18.1743C218.185 18.1646 217.827 18.0773 217.5 17.9183C217.173 17.7593 216.885 17.5323 216.655 17.2531C216.313 16.655 216.155 15.9715 216.201 15.2863V5.87553H227.868V8.36516H220.292V10.4564H227.59V12.9461H220.494V14.3901C220.494 14.888 220.721 15.1867 221.176 15.2365C221.941 15.2846 222.709 15.2846 223.474 15.2365C225.323 15.2725 227.173 15.1642 229.005 14.9129C229.81 14.8548 230.589 14.6072 231.277 14.1909C231.503 14.0045 231.679 13.7661 231.789 13.4969C231.899 13.2277 231.94 12.9359 231.909 12.6473V5.55188H236V18.4481ZM235.697 24.1494C235.715 24.8957 235.555 25.6356 235.23 26.3101C234.906 26.9845 234.426 27.5746 233.828 28.0332C232.273 29.0555 230.445 29.601 228.575 29.601C226.706 29.601 224.878 29.0555 223.322 28.0332C222.725 27.5746 222.245 26.9845 221.92 26.3101C221.596 25.6356 221.436 24.8957 221.454 24.1494C221.443 23.3909 221.608 22.64 221.936 21.954C222.264 21.2679 222.747 20.6649 223.348 20.1909C224.848 19.0789 226.702 18.5315 228.575 18.6473C230.459 18.5479 232.317 19.1029 233.828 20.2158C234.421 20.6897 234.897 21.2898 235.221 21.9711C235.544 22.6524 235.707 23.3971 235.697 24.1494ZM231.732 24.1494C231.75 23.7751 231.682 23.4016 231.534 23.0568C231.385 22.7119 231.159 22.4046 230.873 22.1577C230.237 21.6181 229.414 21.3417 228.575 21.3859C227.744 21.3376 226.927 21.615 226.302 22.1577C226.025 22.4095 225.803 22.7155 225.651 23.0562C225.499 23.3969 225.421 23.7649 225.421 24.1369C225.421 24.509 225.499 24.877 225.651 25.2177C225.803 25.5584 226.025 25.8644 226.302 26.1162C226.936 26.6407 227.749 26.9078 228.575 26.8631C229.409 26.9042 230.228 26.638 230.873 26.1162C231.156 25.872 231.38 25.5687 231.528 25.2284C231.677 24.8882 231.746 24.5195 231.732 24.1494Z" fill="white"/>
<path d="M93.7938 19.917H93.415V20.2904H93.7938V19.917Z" fill="white"/>
</g>
<defs>
<clipPath id="clip0_144_906">
<rect width="236" height="36" fill="white"/>
</clipPath>
</defs>
</svg>
